<?xml version="1.0" encoding="UTF-8"?>
<svg id="Layer_2" data-name="Layer 2" xmlns="http://www.w3.org/2000/svg" xmlns:xlink="http://www.w3.org/1999/xlink" viewBox="0 0 910.61 386.26">
  <defs>
    <style>
      .cls-1 {
        fill: url(#linear-gradient-12);
      }

      .cls-1, .cls-2, .cls-3, .cls-4, .cls-5, .cls-6, .cls-7, .cls-8, .cls-9, .cls-10, .cls-11, .cls-12, .cls-13, .cls-14, .cls-15, .cls-16, .cls-17 {
        stroke-width: 0px;
      }

      .cls-2 {
        fill: url(#linear-gradient);
      }

      .cls-3 {
        fill: url(#linear-gradient-6);
      }

      .cls-4 {
        fill: url(#linear-gradient-11);
      }

      .cls-5 {
        fill: url(#linear-gradient-5);
      }

      .cls-6 {
        fill: #60f61b;
      }

      .cls-6, .cls-10 {
        fill-rule: evenodd;
      }

      .cls-7 {
        fill: url(#linear-gradient-13);
      }

      .cls-8 {
        fill: url(#linear-gradient-14);
      }

      .cls-9 {
        fill: url(#linear-gradient-2);
      }

      .cls-10, .cls-14 {
        fill: #21093d;
      }

      .cls-11 {
        fill: url(#linear-gradient-7);
      }

      .cls-12 {
        fill: url(#linear-gradient-3);
      }

      .cls-13 {
        fill: url(#linear-gradient-9);
      }

      .cls-15 {
        fill: url(#linear-gradient-8);
      }

      .cls-16 {
        fill: url(#linear-gradient-10);
      }

      .cls-17 {
        fill: url(#linear-gradient-4);
      }
    </style>
    <linearGradient id="linear-gradient" x1="0" y1="347.15" x2="53.05" y2="347.15" gradientUnits="userSpaceOnUse">
      <stop offset="0" stop-color="#662d91"/>
      <stop offset=".86" stop-color="#662d91"/>
      <stop offset="1" stop-color="#662d91"/>
    </linearGradient>
    <linearGradient id="linear-gradient-2" x1="67.19" x2="120.24" xlink:href="#linear-gradient"/>
    <linearGradient id="linear-gradient-3" x1="135.07" y1="347.58" x2="192.14" y2="347.58" xlink:href="#linear-gradient"/>
    <linearGradient id="linear-gradient-4" x1="201.38" x2="247.26" xlink:href="#linear-gradient"/>
    <linearGradient id="linear-gradient-5" x1="281.44" y1="347.05" x2="339.21" y2="347.05" xlink:href="#linear-gradient"/>
    <linearGradient id="linear-gradient-6" x1="348.23" x2="401.28" xlink:href="#linear-gradient"/>
    <linearGradient id="linear-gradient-7" x1="416.11" y1="346.91" x2="464.06" y2="346.91" xlink:href="#linear-gradient"/>
    <linearGradient id="linear-gradient-8" x1="466.7" y1="347.49" x2="520.05" y2="347.49" xlink:href="#linear-gradient"/>
    <linearGradient id="linear-gradient-9" x1="557.66" y1="347.15" x2="628.78" y2="347.15" xlink:href="#linear-gradient"/>
    <linearGradient id="linear-gradient-10" x1="635.45" y1="347.29" x2="701.45" y2="347.29" xlink:href="#linear-gradient"/>
    <linearGradient id="linear-gradient-11" x1="703.63" y1="347.49" x2="756.98" y2="347.49" xlink:href="#linear-gradient"/>
    <linearGradient id="linear-gradient-12" x1="765.71" y1="347.58" x2="822.79" y2="347.58" xlink:href="#linear-gradient"/>
    <linearGradient id="linear-gradient-13" x1="832.32" y1="347.15" x2="844.01" y2="347.15" xlink:href="#linear-gradient"/>
    <linearGradient id="linear-gradient-14" x1="854.52" y1="347.15" x2="910.61" y2="347.15" xlink:href="#linear-gradient"/>
  </defs>
  <g id="Layer_1-2" data-name="Layer 1">
    <g>
      <path class="cls-6" d="m521.37,101.29L579.09,1.32h-46.11c-11.42,0-21.98,6.09-27.69,15.99l-8.19,14.18c-4.96,8.59-4.96,19.16,0,27.75l24.28,42.06Z"/>
      <path class="cls-10" d="m654.69,38.66c0-19.47-15.57-37.33-37.33-37.33l-76.84,133.09h0s-16.14,27.96-16.14,27.96h0s-36.48,63.19-36.48,63.19h64.57l4.2-7.26,16.14-27.96h0s76.84-133.1,76.84-133.1c3.46-6,5.05-12.37,5.05-18.58Z"/>
      <path class="cls-10" d="m715.02,1.32l-125.68,217.68-3.15,5.46-.63,1.1h64.57l97.18-168.32c3.46-6,5.05-12.37,5.05-18.58,0-19.47-15.57-37.33-37.33-37.33Z"/>
      <path class="cls-10" d="m472.94,74.41l-42.2,73.11-13.59,23.52h-.01s-.01,0-.01,0l-49.6-85.92c.04.15.08.3.12.45l-12.18-21.08h0s-.01-.03-.01-.04c-.26-.56-.54-1.11-.83-1.67-.01-.03-.03-.06-.05-.09-.01-.03-.03-.06-.04-.09-1.96-3.91-4.12-7.66-6.52-11.29-.01-.01-.03-.04-.04-.05-.35-.53-.68-1.06-1.05-1.58-.01,0-.01-.01-.01-.01-.52-.76-1.06-1.52-1.6-2.27-10.48-14.58-24.33-26.57-40.4-34.84h0s-.05-.03-.05-.03c-7.6-3.91-15.69-6.99-24.16-9.11-8.74-2.2-17.9-3.36-27.3-3.38l.68,1.18h-.03s-.7-1.21-.7-1.21h-.25c-3.29,0-6.55.15-9.77.43l-.88-.06.06.14c-57.61,5.36-102.87,53.97-102.87,112.95,0,62.54,50.89,113.44,113.45,113.44,2.44,0,4.87-.08,7.27-.25l6.29.03,32.28.05h.01l53.13.09-32.31-55.98-13.31-.03h-7.41s-.01,0-.01,0l-37.48-.06-17.12-.03c-27.84-4.2-49.25-28.28-49.25-57.26,0-31.94,25.98-57.92,57.92-57.92,8.32,0,16.22,1.78,23.38,4.95l6.69,3.48c2.79,1.7,5.43,3.65,7.88,5.79l15.36,21.43.63,1.09h0s21.08,36.51,21.08,36.51l1.55,2.69,10.21,17.71,10.09,17.46,1.74,3.01.74,1.29,1.37,2.36,3.25,5.64h.01l17.85,30.93,5.81,10.07,3.99,6.91h64.61l-.12-.19h.39l32.05-55.52,23.56-40.8-32.29-55.93Z"/>
    </g>
    <g>
      <g>
        <path class="cls-2" d="m53.05,369.9c0,5.2-1.77,9.08-5.3,11.64-1.7,1.22-3.46,2.16-5.26,2.84-1.8.67-3.55,1.01-5.25,1.01H15.82c-1.7,0-3.46-.34-5.26-1.01-1.8-.67-3.55-1.62-5.25-2.84-1.7-1.28-3.01-2.87-3.93-4.76-.92-1.89-1.38-4.18-1.38-6.88v-45.7c0-2.56.46-4.83,1.38-6.78.92-1.96,2.23-3.54,3.93-4.76h-.1c1.7-1.09,3.47-1.99,5.3-2.69,1.83-.71,3.6-1.06,5.3-1.06h21.42c1.7,0,3.47.35,5.3,1.06,1.83.71,3.6,1.6,5.3,2.69h-.1c1.7,1.22,3.01,2.81,3.93,4.76.92,1.96,1.38,4.22,1.38,6.78v6.64c0,3.08-1.96,4.62-5.89,4.62s-5.79-1.54-5.79-4.62v-5.77c0-1.6-.49-3.08-1.47-4.43s-2.69-2.02-5.11-2.02h-16.5c-2.42,0-4.13.67-5.11,2.02s-1.47,2.82-1.47,4.43v44.06c0,1.67.49,3.17,1.47,4.52.98,1.35,2.68,2.02,5.11,2.02h16.5c2.42,0,4.13-.67,5.11-2.02.98-1.35,1.47-2.85,1.47-4.52v-5.58c0-3.01,1.93-4.52,5.79-4.52s5.89,1.51,5.89,4.52v6.35Z"/>
        <path class="cls-9" d="m104.42,308.91c1.7,0,3.47.35,5.3,1.06,1.83.71,3.6,1.6,5.3,2.69h-.1c1.7,1.22,3.01,2.81,3.93,4.76.92,1.96,1.38,4.22,1.38,6.78v45.7c0,5.2-1.77,9.08-5.3,11.64-1.7,1.22-3.46,2.16-5.26,2.84-1.8.67-3.55,1.01-5.25,1.01h-21.42c-1.7,0-3.46-.34-5.26-1.01-1.8-.67-3.55-1.62-5.25-2.84-1.7-1.28-3.01-2.87-3.93-4.76-.92-1.89-1.38-4.18-1.38-6.88v-45.7c0-2.56.46-4.83,1.38-6.78.92-1.96,2.23-3.54,3.93-4.76h-.1c1.7-1.09,3.47-1.99,5.3-2.69,1.83-.71,3.6-1.06,5.3-1.06h21.42Zm-2.46,66.77c2.42,0,4.13-.67,5.11-2.02.98-1.35,1.47-2.85,1.47-4.52v-44.06c0-1.6-.49-3.08-1.47-4.43s-2.69-2.02-5.11-2.02h-16.5c-2.42,0-4.13.67-5.11,2.02s-1.47,2.82-1.47,4.43v44.06c0,1.67.49,3.17,1.47,4.52.98,1.35,2.68,2.02,5.11,2.02h16.5Z"/>
        <path class="cls-12" d="m162.87,353.64h-7.56c-1.11,0-1.98-.43-2.6-1.3-.62-.87-.93-2.04-.93-3.51,0-3.27,1.38-4.91,4.13-4.91h11.49c2.42,0,4.13-.67,5.11-2.02.98-1.35,1.47-2.82,1.47-4.43v-12.41c0-1.6-.49-3.08-1.47-4.43-.98-1.35-2.69-2.02-5.11-2.02h-20.73v62.73c0,3.08-1.93,4.62-5.8,4.62s-5.8-1.54-5.8-4.62v-66.67c0-2.31.61-3.85,1.82-4.62,1.21-.77,2.67-1.15,4.37-1.15h28.59c1.7,0,3.47.35,5.3,1.06,1.83.71,3.6,1.6,5.3,2.69h-.1c1.7,1.22,3.01,2.81,3.93,4.76.92,1.96,1.38,4.22,1.38,6.78v14.05c0,5.2-1.77,9.08-5.3,11.64-.72.51-1.49,1-2.31,1.44-.82.45-1.65.9-2.5,1.35l15.72,25.4c.2.32.39.74.59,1.25.2.51.29.93.29,1.25,0,1.54-1.11,3.02-3.34,4.42v-.1c-1.51.9-2.78,1.35-3.83,1.35-1.51,0-2.72-.74-3.63-2.21l.1.1-18.57-30.5Z"/>
        <path class="cls-17" d="m207.56,385.39c-2.42,0-4.06-.61-4.91-1.83-.85-1.22-1.28-2.56-1.28-4.04v-64.84c0-1.47.42-2.81,1.28-3.99.85-1.19,2.49-1.78,4.91-1.78h34.19c2.42,0,3.7,1.6,3.83,4.81.13,3.27-1.15,4.91-3.83,4.91h-28.78v57.05h30.55c2.42,0,3.67,1.57,3.73,4.71.13,3.33-1.11,5-3.73,5h-35.95Zm30.55-39.83c0,2.25-.8,4.14-2.41,5.68-1.61,1.54-3.55,2.31-5.84,2.31s-4.13-.77-5.7-2.31-2.36-3.43-2.36-5.68.79-4.14,2.36-5.68,3.47-2.31,5.7-2.31,4.24.77,5.84,2.31c1.6,1.54,2.41,3.43,2.41,5.68Z"/>
        <path class="cls-5" d="m310.41,385.78c-1.31,0-2.7-.21-4.17-.63-1.47-.42-2.54-1.2-3.19-2.36-1.51-5-3.08-10.13-4.72-15.39-1.64-5.26-3.28-10.42-4.91-15.49-1.83-5.96-3.8-12.17-5.89-18.62-2.1-6.45-4.06-12.62-5.89-18.52-.39-1.41-.16-2.65.69-3.7.85-1.06,2.06-1.84,3.63-2.36.98-.26,1.83-.38,2.55-.38,2.23,0,3.67,1.09,4.32,3.27l7.27,22.8c.65,2.31,1.42,4.84,2.31,7.6s1.78,5.58,2.7,8.47c.92,2.89,1.83,5.76,2.75,8.61.92,2.85,1.77,5.5,2.55,7.94,1.24-4.04,2.6-8.42,4.08-13.13,1.47-4.71,2.98-9.51,4.52-14.38,1.54-4.87,3.06-9.7,4.57-14.48,1.51-4.78,2.91-9.25,4.22-13.42.72-2.18,2.13-3.27,4.22-3.27.79,0,1.7.13,2.75.38,3.6.96,5.01,2.98,4.22,6.06-3.54,11.22-7.11,22.55-10.71,33.96-3.6,11.42-7.17,22.77-10.71,34.06-.52,1.28-1.49,2.1-2.9,2.45-1.41.35-2.83.53-4.27.53Z"/>
        <path class="cls-3" d="m385.46,308.91c1.7,0,3.47.35,5.3,1.06,1.83.71,3.6,1.6,5.3,2.69h-.1c1.7,1.22,3.01,2.81,3.93,4.76.92,1.96,1.38,4.22,1.38,6.78v45.7c0,5.2-1.77,9.08-5.3,11.64-1.7,1.22-3.46,2.16-5.26,2.84-1.8.67-3.55,1.01-5.25,1.01h-21.42c-1.7,0-3.46-.34-5.26-1.01-1.8-.67-3.55-1.62-5.25-2.84-1.7-1.28-3.01-2.87-3.93-4.76-.92-1.89-1.38-4.18-1.38-6.88v-45.7c0-2.56.46-4.83,1.38-6.78.92-1.96,2.23-3.54,3.93-4.76h-.1c1.7-1.09,3.47-1.99,5.3-2.69,1.83-.71,3.6-1.06,5.3-1.06h21.42Zm-2.46,66.77c2.42,0,4.13-.67,5.11-2.02.98-1.35,1.47-2.85,1.47-4.52v-44.06c0-1.6-.49-3.08-1.47-4.43s-2.69-2.02-5.11-2.02h-16.5c-2.42,0-4.13.67-5.11,2.02s-1.47,2.82-1.47,4.43v44.06c0,1.67.49,3.17,1.47,4.52.98,1.35,2.68,2.02,5.11,2.02h16.5Z"/>
        <path class="cls-11" d="m422.3,385.39c-2.42,0-4.06-.61-4.91-1.83-.85-1.22-1.28-2.56-1.28-4.04v-66.48c0-3.08,1.9-4.62,5.7-4.62s5.89,1.54,5.89,4.62v62.63h32.81c2.36,0,3.54,1.57,3.54,4.71.13,3.33-1.05,5-3.54,5h-38.21Z"/>
        <path class="cls-15" d="m499.31,381.45c0,3.08-1.96,4.62-5.89,4.62s-5.8-1.54-5.8-4.62v-62.82h-17.19c-2.36,0-3.6-1.64-3.73-4.91,0-3.21,1.24-4.81,3.73-4.81h46.07c2.49,0,3.67,1.6,3.54,4.81,0,3.27-1.18,4.91-3.54,4.91h-17.19v62.82Z"/>
        <path class="cls-13" d="m618.47,308.43c2.09,0,4.39.48,6.88,1.44,2.29.9,3.44,2.6,3.44,5.1v66.29c0,3.08-1.93,4.62-5.8,4.62s-5.8-1.54-5.8-4.62v-49.45l-2.85-.29-3.93,12.51-11.79,38.48c-.72,2.25-2.49,3.33-5.3,3.27-1.24-.07-2.33-.38-3.24-.96-.92-.58-1.54-1.41-1.87-2.5l-7.07-22.42c-1.44-4.43-2.88-8.93-4.32-13.52-1.44-4.58-3.01-9.67-4.71-15.25l-2.85.38v49.74c0,3.08-1.93,4.62-5.79,4.62s-5.8-1.54-5.8-4.62v-66.29c0-2.44,1.14-4.14,3.44-5.1,2.42-.96,4.75-1.41,6.97-1.35.98,0,2,.13,3.05.38,1.05.26,2.03.62,2.95,1.11.92.48,1.74,1.09,2.46,1.83.72.74,1.28,1.59,1.67,2.55l15.42,51.47c1.11-3.78,2.29-7.89,3.54-12.31,1.24-4.43,2.52-8.92,3.83-13.47,1.31-4.55,2.6-9.06,3.88-13.52,1.28-4.46,2.47-8.61,3.58-12.46.39-.9.95-1.7,1.67-2.41.72-.71,1.54-1.3,2.46-1.78.92-.48,1.88-.85,2.9-1.11,1.01-.25,2.01-.38,3-.38Z"/>
        <path class="cls-16" d="m668.47,318.33l-21.51,64.65v-.1c-.39.96-.93,1.75-1.62,2.36-.69.61-1.52.91-2.51.91-.52,0-1.03-.05-1.52-.14-.49-.1-1-.21-1.52-.34h.1c-3.73-1.15-5.11-3.21-4.13-6.16l22.4-66.67c.33-1.03.9-1.89,1.72-2.6.82-.71,1.78-1.12,2.9-1.25,1.11-.19,2.19-.34,3.24-.43,1.05-.1,1.87-.14,2.46-.14s1.41.05,2.46.14c1.05.1,2.13.21,3.24.34.92.13,1.82.61,2.7,1.44.88.83,1.55,1.67,2.01,2.5,3.67,11.03,7.38,22.14,11.15,33.34,3.76,11.19,7.48,22.3,11.15,33.34.92,2.95-.46,5-4.13,6.16-.53.13-1,.24-1.42.34-.43.1-.9.14-1.42.14-.92,0-1.75-.31-2.5-.91-.75-.61-1.29-1.4-1.62-2.36v.1l-21.61-64.65Zm7.37,43.87c0,2.05-.74,3.8-2.21,5.24s-3.26,2.17-5.35,2.17-3.87-.72-5.3-2.17c-1.44-1.44-2.16-3.19-2.16-5.24s.72-3.8,2.16-5.24c1.44-1.44,3.21-2.17,5.3-2.17s3.88.72,5.35,2.17,2.21,3.19,2.21,5.24Z"/>
        <path class="cls-4" d="m736.25,381.45c0,3.08-1.96,4.62-5.89,4.62s-5.8-1.54-5.8-4.62v-62.82h-17.19c-2.36,0-3.6-1.64-3.73-4.91,0-3.21,1.24-4.81,3.73-4.81h46.07c2.49,0,3.67,1.6,3.54,4.81,0,3.27-1.18,4.91-3.54,4.91h-17.19v62.82Z"/>
        <path class="cls-1" d="m793.52,353.64h-7.56c-1.11,0-1.98-.43-2.6-1.3-.62-.87-.93-2.04-.93-3.51,0-3.27,1.38-4.91,4.13-4.91h11.49c2.42,0,4.13-.67,5.11-2.02.98-1.35,1.47-2.82,1.47-4.43v-12.41c0-1.6-.49-3.08-1.47-4.43-.98-1.35-2.69-2.02-5.11-2.02h-20.73v62.73c0,3.08-1.93,4.62-5.8,4.62s-5.8-1.54-5.8-4.62v-66.67c0-2.31.61-3.85,1.82-4.62,1.21-.77,2.67-1.15,4.37-1.15h28.59c1.7,0,3.47.35,5.3,1.06,1.83.71,3.6,1.6,5.3,2.69h-.1c1.7,1.22,3.01,2.81,3.93,4.76.92,1.96,1.38,4.22,1.38,6.78v14.05c0,5.2-1.77,9.08-5.3,11.64-.72.51-1.49,1-2.31,1.44-.82.45-1.65.9-2.5,1.35l15.72,25.4c.2.32.39.74.59,1.25.2.51.29.93.29,1.25,0,1.54-1.11,3.02-3.34,4.42v-.1c-1.51.9-2.78,1.35-3.83,1.35-1.51,0-2.72-.74-3.63-2.21l.1.1-18.57-30.5Z"/>
        <path class="cls-7" d="m844.01,381.25c0,3.08-1.96,4.62-5.89,4.62s-5.8-1.54-5.8-4.62v-68.21c0-3.08,1.93-4.62,5.8-4.62s5.89,1.54,5.89,4.62v68.21Z"/>
        <path class="cls-8" d="m899.9,310.64c.52-.71,1.06-1.28,1.62-1.73.56-.45,1.29-.67,2.21-.67s1.96.29,3.14.87c2.49,1.15,3.73,2.63,3.73,4.43,0,.45-.05.91-.15,1.39-.1.48-.28.88-.54,1.2v-.1l-18.96,31.56,18.47,30.59c.33.77.49,1.54.49,2.31,0,1.86-1.05,3.34-3.14,4.43-1.57.77-2.88,1.15-3.93,1.15-1.31,0-2.49-.74-3.54-2.21l-16.9-28c-1.25,2.12-2.59,4.36-4.03,6.73-1.44,2.37-2.9,4.8-4.37,7.26-1.47,2.47-2.95,4.89-4.42,7.26-1.47,2.37-2.83,4.62-4.08,6.73-.52.71-1.05,1.25-1.57,1.64-.53.38-1.18.58-1.96.58-1.11,0-2.39-.38-3.83-1.15-2.23-1.22-3.34-2.69-3.34-4.43,0-.45.06-.85.2-1.2.13-.35.29-.75.49-1.2v.1c3.01-5.07,6.11-10.2,9.28-15.39,3.18-5.2,6.3-10.36,9.38-15.49l-18.76-31.27c-.2-.38-.39-.83-.59-1.35-.2-.51-.29-.93-.29-1.25,0-1.73,1.31-3.17,3.93-4.33,1.05-.58,2.09-.87,3.14-.87.85,0,1.57.23,2.16.67.59.45,1.14,1.03,1.67,1.73l17.29,28.48,17.19-28.48Z"/>
      </g>
      <g>
        <path class="cls-14" d="m53.05,369.9c0,5.2-1.77,9.08-5.3,11.64-1.7,1.22-3.46,2.16-5.26,2.84-1.8.67-3.55,1.01-5.25,1.01H15.82c-1.7,0-3.46-.34-5.26-1.01-1.8-.67-3.55-1.62-5.25-2.84-1.7-1.28-3.01-2.87-3.93-4.76-.92-1.89-1.38-4.18-1.38-6.88v-45.7c0-2.56.46-4.83,1.38-6.78.92-1.96,2.23-3.54,3.93-4.76h-.1c1.7-1.09,3.47-1.99,5.3-2.69,1.83-.71,3.6-1.06,5.3-1.06h21.42c1.7,0,3.47.35,5.3,1.06,1.83.71,3.6,1.6,5.3,2.69h-.1c1.7,1.22,3.01,2.81,3.93,4.76.92,1.96,1.38,4.22,1.38,6.78v6.64c0,3.08-1.96,4.62-5.89,4.62s-5.79-1.54-5.79-4.62v-5.77c0-1.6-.49-3.08-1.47-4.43s-2.69-2.02-5.11-2.02h-16.5c-2.42,0-4.13.67-5.11,2.02s-1.47,2.82-1.47,4.43v44.06c0,1.67.49,3.17,1.47,4.52.98,1.35,2.68,2.02,5.11,2.02h16.5c2.42,0,4.13-.67,5.11-2.02.98-1.35,1.47-2.85,1.47-4.52v-5.58c0-3.01,1.93-4.52,5.79-4.52s5.89,1.51,5.89,4.52v6.35Z"/>
        <path class="cls-14" d="m104.42,308.91c1.7,0,3.47.35,5.3,1.06,1.83.71,3.6,1.6,5.3,2.69h-.1c1.7,1.22,3.01,2.81,3.93,4.76.92,1.96,1.38,4.22,1.38,6.78v45.7c0,5.2-1.77,9.08-5.3,11.64-1.7,1.22-3.46,2.16-5.26,2.84-1.8.67-3.55,1.01-5.25,1.01h-21.42c-1.7,0-3.46-.34-5.26-1.01-1.8-.67-3.55-1.62-5.25-2.84-1.7-1.28-3.01-2.87-3.93-4.76-.92-1.89-1.38-4.18-1.38-6.88v-45.7c0-2.56.46-4.83,1.38-6.78.92-1.96,2.23-3.54,3.93-4.76h-.1c1.7-1.09,3.47-1.99,5.3-2.69,1.83-.71,3.6-1.06,5.3-1.06h21.42Zm-2.46,66.77c2.42,0,4.13-.67,5.11-2.02.98-1.35,1.47-2.85,1.47-4.52v-44.06c0-1.6-.49-3.08-1.47-4.43s-2.69-2.02-5.11-2.02h-16.5c-2.42,0-4.13.67-5.11,2.02s-1.47,2.82-1.47,4.43v44.06c0,1.67.49,3.17,1.47,4.52.98,1.35,2.68,2.02,5.11,2.02h16.5Z"/>
        <path class="cls-14" d="m162.87,353.64h-7.56c-1.11,0-1.98-.43-2.6-1.3-.62-.87-.93-2.04-.93-3.51,0-3.27,1.38-4.91,4.13-4.91h11.49c2.42,0,4.13-.67,5.11-2.02.98-1.35,1.47-2.82,1.47-4.43v-12.41c0-1.6-.49-3.08-1.47-4.43-.98-1.35-2.69-2.02-5.11-2.02h-20.73v62.73c0,3.08-1.93,4.62-5.8,4.62s-5.8-1.54-5.8-4.62v-66.67c0-2.31.61-3.85,1.82-4.62,1.21-.77,2.67-1.15,4.37-1.15h28.59c1.7,0,3.47.35,5.3,1.06,1.83.71,3.6,1.6,5.3,2.69h-.1c1.7,1.22,3.01,2.81,3.93,4.76.92,1.96,1.38,4.22,1.38,6.78v14.05c0,5.2-1.77,9.08-5.3,11.64-.72.51-1.49,1-2.31,1.44-.82.45-1.65.9-2.5,1.35l15.72,25.4c.2.32.39.74.59,1.25.2.51.29.93.29,1.25,0,1.54-1.11,3.02-3.34,4.42v-.1c-1.51.9-2.78,1.35-3.83,1.35-1.51,0-2.72-.74-3.63-2.21l.1.1-18.57-30.5Z"/>
        <path class="cls-14" d="m207.56,385.39c-2.42,0-4.06-.61-4.91-1.83-.85-1.22-1.28-2.56-1.28-4.04v-64.84c0-1.47.42-2.81,1.28-3.99.85-1.19,2.49-1.78,4.91-1.78h34.19c2.42,0,3.7,1.6,3.83,4.81.13,3.27-1.15,4.91-3.83,4.91h-28.78v57.05h30.55c2.42,0,3.67,1.57,3.73,4.71.13,3.33-1.11,5-3.73,5h-35.95Zm30.55-39.83c0,2.25-.8,4.14-2.41,5.68-1.61,1.54-3.55,2.31-5.84,2.31s-4.13-.77-5.7-2.31-2.36-3.43-2.36-5.68.79-4.14,2.36-5.68,3.47-2.31,5.7-2.31,4.24.77,5.84,2.31c1.6,1.54,2.41,3.43,2.41,5.68Z"/>
        <path class="cls-14" d="m310.41,385.78c-1.31,0-2.7-.21-4.17-.63-1.47-.42-2.54-1.2-3.19-2.36-1.51-5-3.08-10.13-4.72-15.39-1.64-5.26-3.28-10.42-4.91-15.49-1.83-5.96-3.8-12.17-5.89-18.62-2.1-6.45-4.06-12.62-5.89-18.52-.39-1.41-.16-2.65.69-3.7.85-1.06,2.06-1.84,3.63-2.36.98-.26,1.83-.38,2.55-.38,2.23,0,3.67,1.09,4.32,3.27l7.27,22.8c.65,2.31,1.42,4.84,2.31,7.6s1.78,5.58,2.7,8.47c.92,2.89,1.83,5.76,2.75,8.61.92,2.85,1.77,5.5,2.55,7.94,1.24-4.04,2.6-8.42,4.08-13.13,1.47-4.71,2.98-9.51,4.52-14.38,1.54-4.87,3.06-9.7,4.57-14.48,1.51-4.78,2.91-9.25,4.22-13.42.72-2.18,2.13-3.27,4.22-3.27.79,0,1.7.13,2.75.38,3.6.96,5.01,2.98,4.22,6.06-3.54,11.22-7.11,22.55-10.71,33.96-3.6,11.42-7.17,22.77-10.71,34.06-.52,1.28-1.49,2.1-2.9,2.45-1.41.35-2.83.53-4.27.53Z"/>
        <path class="cls-14" d="m385.46,308.91c1.7,0,3.47.35,5.3,1.06,1.83.71,3.6,1.6,5.3,2.69h-.1c1.7,1.22,3.01,2.81,3.93,4.76.92,1.96,1.38,4.22,1.38,6.78v45.7c0,5.2-1.77,9.08-5.3,11.64-1.7,1.22-3.46,2.16-5.26,2.84-1.8.67-3.55,1.01-5.25,1.01h-21.42c-1.7,0-3.46-.34-5.26-1.01-1.8-.67-3.55-1.62-5.25-2.84-1.7-1.28-3.01-2.87-3.93-4.76-.92-1.89-1.38-4.18-1.38-6.88v-45.7c0-2.56.46-4.83,1.38-6.78.92-1.96,2.23-3.54,3.93-4.76h-.1c1.7-1.09,3.47-1.99,5.3-2.69,1.83-.71,3.6-1.06,5.3-1.06h21.42Zm-2.46,66.77c2.42,0,4.13-.67,5.11-2.02.98-1.35,1.47-2.85,1.47-4.52v-44.06c0-1.6-.49-3.08-1.47-4.43s-2.69-2.02-5.11-2.02h-16.5c-2.42,0-4.13.67-5.11,2.02s-1.47,2.82-1.47,4.43v44.06c0,1.67.49,3.17,1.47,4.52.98,1.35,2.68,2.02,5.11,2.02h16.5Z"/>
        <path class="cls-14" d="m422.3,385.39c-2.42,0-4.06-.61-4.91-1.83-.85-1.22-1.28-2.56-1.28-4.04v-66.48c0-3.08,1.9-4.62,5.7-4.62s5.89,1.54,5.89,4.62v62.63h32.81c2.36,0,3.54,1.57,3.54,4.71.13,3.33-1.05,5-3.54,5h-38.21Z"/>
        <path class="cls-14" d="m499.31,381.45c0,3.08-1.96,4.62-5.89,4.62s-5.8-1.54-5.8-4.62v-62.82h-17.19c-2.36,0-3.6-1.64-3.73-4.91,0-3.21,1.24-4.81,3.73-4.81h46.07c2.49,0,3.67,1.6,3.54,4.81,0,3.27-1.18,4.91-3.54,4.91h-17.19v62.82Z"/>
        <path class="cls-14" d="m618.47,308.43c2.09,0,4.39.48,6.88,1.44,2.29.9,3.44,2.6,3.44,5.1v66.29c0,3.08-1.93,4.62-5.8,4.62s-5.8-1.54-5.8-4.62v-49.45l-2.85-.29-3.93,12.51-11.79,38.48c-.72,2.25-2.49,3.33-5.3,3.27-1.24-.07-2.33-.38-3.24-.96-.92-.58-1.54-1.41-1.87-2.5l-7.07-22.42c-1.44-4.43-2.88-8.93-4.32-13.52-1.44-4.58-3.01-9.67-4.71-15.25l-2.85.38v49.74c0,3.08-1.93,4.62-5.79,4.62s-5.8-1.54-5.8-4.62v-66.29c0-2.44,1.14-4.14,3.44-5.1,2.42-.96,4.75-1.41,6.97-1.35.98,0,2,.13,3.05.38,1.05.26,2.03.62,2.95,1.11.92.48,1.74,1.09,2.46,1.83.72.74,1.28,1.59,1.67,2.55l15.42,51.47c1.11-3.78,2.29-7.89,3.54-12.31,1.24-4.43,2.52-8.92,3.83-13.47,1.31-4.55,2.6-9.06,3.88-13.52,1.28-4.46,2.47-8.61,3.58-12.46.39-.9.95-1.7,1.67-2.41.72-.71,1.54-1.3,2.46-1.78.92-.48,1.88-.85,2.9-1.11,1.01-.25,2.01-.38,3-.38Z"/>
        <path class="cls-14" d="m668.47,318.33l-21.51,64.65v-.1c-.39.96-.93,1.75-1.62,2.36-.69.61-1.52.91-2.51.91-.52,0-1.03-.05-1.52-.14-.49-.1-1-.21-1.52-.34h.1c-3.73-1.15-5.11-3.21-4.13-6.16l22.4-66.67c.33-1.03.9-1.89,1.72-2.6.82-.71,1.78-1.12,2.9-1.25,1.11-.19,2.19-.34,3.24-.43,1.05-.1,1.87-.14,2.46-.14s1.41.05,2.46.14c1.05.1,2.13.21,3.24.34.92.13,1.82.61,2.7,1.44.88.83,1.55,1.67,2.01,2.5,3.67,11.03,7.38,22.14,11.15,33.34,3.76,11.19,7.48,22.3,11.15,33.34.92,2.95-.46,5-4.13,6.16-.53.13-1,.24-1.42.34-.43.1-.9.14-1.42.14-.92,0-1.75-.31-2.5-.91-.75-.61-1.29-1.4-1.62-2.36v.1l-21.61-64.65Zm7.37,43.87c0,2.05-.74,3.8-2.21,5.24s-3.26,2.17-5.35,2.17-3.87-.72-5.3-2.17c-1.44-1.44-2.16-3.19-2.16-5.24s.72-3.8,2.16-5.24c1.44-1.44,3.21-2.17,5.3-2.17s3.88.72,5.35,2.17,2.21,3.19,2.21,5.24Z"/>
        <path class="cls-14" d="m736.25,381.45c0,3.08-1.96,4.62-5.89,4.62s-5.8-1.54-5.8-4.62v-62.82h-17.19c-2.36,0-3.6-1.64-3.73-4.91,0-3.21,1.24-4.81,3.73-4.81h46.07c2.49,0,3.67,1.6,3.54,4.81,0,3.27-1.18,4.91-3.54,4.91h-17.19v62.82Z"/>
        <path class="cls-14" d="m793.52,353.64h-7.56c-1.11,0-1.98-.43-2.6-1.3-.62-.87-.93-2.04-.93-3.51,0-3.27,1.38-4.91,4.13-4.91h11.49c2.42,0,4.13-.67,5.11-2.02.98-1.35,1.47-2.82,1.47-4.43v-12.41c0-1.6-.49-3.08-1.47-4.43-.98-1.35-2.69-2.02-5.11-2.02h-20.73v62.73c0,3.08-1.93,4.62-5.8,4.62s-5.8-1.54-5.8-4.62v-66.67c0-2.31.61-3.85,1.82-4.62,1.21-.77,2.67-1.15,4.37-1.15h28.59c1.7,0,3.47.35,5.3,1.06,1.83.71,3.6,1.6,5.3,2.69h-.1c1.7,1.22,3.01,2.81,3.93,4.76.92,1.96,1.38,4.22,1.38,6.78v14.05c0,5.2-1.77,9.08-5.3,11.64-.72.51-1.49,1-2.31,1.44-.82.45-1.65.9-2.5,1.35l15.72,25.4c.2.32.39.74.59,1.25.2.51.29.93.29,1.25,0,1.54-1.11,3.02-3.34,4.42v-.1c-1.51.9-2.78,1.35-3.83,1.35-1.51,0-2.72-.74-3.63-2.21l.1.1-18.57-30.5Z"/>
        <path class="cls-14" d="m844.01,381.25c0,3.08-1.96,4.62-5.89,4.62s-5.8-1.54-5.8-4.62v-68.21c0-3.08,1.93-4.62,5.8-4.62s5.89,1.54,5.89,4.62v68.21Z"/>
        <path class="cls-14" d="m899.9,310.64c.52-.71,1.06-1.28,1.62-1.73.56-.45,1.29-.67,2.21-.67s1.96.29,3.14.87c2.49,1.15,3.73,2.63,3.73,4.43,0,.45-.05.91-.15,1.39-.1.48-.28.88-.54,1.2v-.1l-18.96,31.56,18.47,30.59c.33.77.49,1.54.49,2.31,0,1.86-1.05,3.34-3.14,4.43-1.57.77-2.88,1.15-3.93,1.15-1.31,0-2.49-.74-3.54-2.21l-16.9-28c-1.25,2.12-2.59,4.36-4.03,6.73-1.44,2.37-2.9,4.8-4.37,7.26-1.47,2.47-2.95,4.89-4.42,7.26-1.47,2.37-2.83,4.62-4.08,6.73-.52.71-1.05,1.25-1.57,1.64-.53.38-1.18.58-1.96.58-1.11,0-2.39-.38-3.83-1.15-2.23-1.22-3.34-2.69-3.34-4.43,0-.45.06-.85.2-1.2.13-.35.29-.75.49-1.2v.1c3.01-5.07,6.11-10.2,9.28-15.39,3.18-5.2,6.3-10.36,9.38-15.49l-18.76-31.27c-.2-.38-.39-.83-.59-1.35-.2-.51-.29-.93-.29-1.25,0-1.73,1.31-3.17,3.93-4.33,1.05-.58,2.09-.87,3.14-.87.85,0,1.57.23,2.16.67.59.45,1.14,1.03,1.67,1.73l17.29,28.48,17.19-28.48Z"/>
      </g>
    </g>
  </g>
</svg>