<svg width="141" height="60" viewBox="0 0 141 60" fill="none" xmlns="http://www.w3.org/2000/svg">
<g clip-path="url(#clip0_39_10986)">
<path fill-rule="evenodd" clip-rule="evenodd" d="M82.0869 15.7872L90.9594 0.4375H83.8703C82.1146 0.4375 80.4911 1.37258 79.6132 2.89265L78.354 5.06989C77.5915 6.38883 77.5915 8.01178 78.354 9.33071L82.0869 15.7887V15.7872Z" fill="#60F61B"/>
<path fill-rule="evenodd" clip-rule="evenodd" d="M102.582 6.17073C102.582 3.18124 100.189 0.438965 96.8432 0.438965L85.0295 20.874L82.5481 25.1671L76.9396 34.8695H86.8668L87.5125 33.7547L89.9939 29.4617L101.808 9.02509C102.339 8.10383 102.584 7.12576 102.584 6.17226L102.582 6.17073Z" fill="white"/>
<path fill-rule="evenodd" clip-rule="evenodd" d="M111.859 0.4375L92.5367 33.8608L92.0524 34.6991L91.9556 34.868H101.883L116.824 9.02363C117.355 8.10237 117.6 7.1243 117.6 6.1708C117.6 3.18131 115.206 0.439035 111.861 0.439035L111.859 0.4375Z" fill="white"/>
<path fill-rule="evenodd" clip-rule="evenodd" d="M74.6411 11.6599L68.1531 22.8855L66.0637 26.4968H66.0622H66.0607L58.435 13.3044C58.4411 13.3274 58.4473 13.3504 58.4534 13.3735L56.5809 10.1368C56.5809 10.1368 56.5793 10.1322 56.5793 10.1306C56.5393 10.0447 56.4963 9.96021 56.4517 9.87423C56.4502 9.86962 56.4471 9.86501 56.444 9.86041C56.4425 9.8558 56.4394 9.85119 56.4379 9.84659C56.1365 9.24623 55.8045 8.67045 55.4355 8.11309C55.4339 8.11155 55.4309 8.10695 55.4293 8.10541C55.3755 8.02403 55.3248 7.94265 55.2679 7.86281C55.2664 7.86281 55.2664 7.86128 55.2664 7.86128C55.1864 7.74458 55.1034 7.62789 55.0204 7.51273C53.4091 5.27408 51.2798 3.43309 48.8091 2.16329L48.8015 2.15869C47.633 1.55833 46.3892 1.08542 45.087 0.75991C43.7433 0.422115 42.335 0.244005 40.8898 0.240934L40.9944 0.422115H40.9898L40.8822 0.236328H40.8437C40.3379 0.236328 39.8367 0.25936 39.3416 0.302352L39.2064 0.293139L39.2156 0.314635C30.3584 1.13763 23.4 8.60135 23.4 17.6573C23.4 27.2599 31.224 35.0752 40.8422 35.0752C41.2173 35.0752 41.5909 35.063 41.9599 35.0369L42.9269 35.0415L47.8898 35.0491H47.8913L56.0597 35.063L51.0922 26.4676L49.0459 26.463H47.9067H47.9051L42.1428 26.4538L39.5108 26.4492C35.2306 25.8043 31.9389 22.107 31.9389 17.6573C31.9389 12.7532 35.9332 8.76411 40.8437 8.76411C42.1229 8.76411 43.3374 9.03742 44.4382 9.52415L45.4668 10.0585C45.8957 10.3195 46.3016 10.6189 46.6783 10.9475L49.0398 14.2379L49.1366 14.4053L52.3775 20.0111L52.6158 20.4242L54.1855 23.1434L55.7368 25.8243L56.0043 26.2864L56.1181 26.4845L56.3287 26.8469L56.8284 27.7129H56.8299L59.5742 32.4619L60.4675 34.0081L61.0809 35.0691H71.0143L70.9958 35.0399H71.0558L75.9832 26.5152L79.6054 20.2507L74.6411 11.663V11.6599Z" fill="white"/>
<path d="M8.65607 57.0301C8.65607 57.8285 8.38395 58.4243 7.84123 58.8174C7.57987 59.0047 7.30928 59.149 7.03254 59.2534C6.75581 59.3563 6.48676 59.4085 6.22539 59.4085H2.93222C2.67085 59.4085 2.40026 59.3563 2.12353 59.2534C1.84679 59.1505 1.57774 59.0047 1.31638 58.8174C1.05501 58.6208 0.853609 58.3767 0.712165 58.0865C0.570722 57.7963 0.5 57.4447 0.5 57.0301V50.0132C0.5 49.6201 0.570722 49.2716 0.712165 48.9722C0.853609 48.6712 1.05501 48.4286 1.31638 48.2413H1.301C1.56236 48.074 1.83449 47.9358 2.11584 47.8283C2.39719 47.7193 2.66932 47.6655 2.93068 47.6655H6.22386C6.48522 47.6655 6.75734 47.7193 7.03869 47.8283C7.32004 47.9373 7.59217 48.074 7.85353 48.2413H7.83816C8.09952 48.4286 8.30093 48.6728 8.44237 48.9722C8.58381 49.2731 8.65453 49.6201 8.65453 50.0132V51.0327C8.65453 51.5056 8.3532 51.7421 7.74899 51.7421C7.14478 51.7421 6.85881 51.5056 6.85881 51.0327V50.1468C6.85881 49.9011 6.78348 49.6739 6.63281 49.4666C6.48214 49.2593 6.21924 49.1564 5.84719 49.1564H3.31042C2.93837 49.1564 2.67546 49.2593 2.5248 49.4666C2.37413 49.6739 2.29879 49.8996 2.29879 50.1468V56.9119C2.29879 57.1683 2.37413 57.3986 2.5248 57.6059C2.67546 57.8132 2.93683 57.9161 3.31042 57.9161H5.84719C6.21924 57.9161 6.48214 57.8132 6.63281 57.6059C6.78348 57.3986 6.85881 57.1683 6.85881 56.9119V56.0551C6.85881 55.593 7.15554 55.3611 7.74899 55.3611C8.34244 55.3611 8.65453 55.593 8.65453 56.0551V57.0301H8.65607Z" fill="url(#paint0_linear_39_10986)"/>
<path d="M16.5539 47.6655C16.8152 47.6655 17.0874 47.7193 17.3687 47.8283C17.6501 47.9373 17.9222 48.074 18.1836 48.2413H18.1682C18.4295 48.4286 18.631 48.6728 18.7724 48.9722C18.9138 49.2731 18.9846 49.6201 18.9846 50.0132V57.0301C18.9846 57.8285 18.7124 58.4243 18.1697 58.8174C17.9084 59.0047 17.6378 59.149 17.361 59.2534C17.0843 59.3563 16.8152 59.4085 16.5539 59.4085H13.2607C12.9993 59.4085 12.7288 59.3563 12.452 59.2534C12.1753 59.1505 11.9062 59.0047 11.6449 58.8174C11.3835 58.6208 11.1821 58.3767 11.0407 58.0865C10.8992 57.7963 10.8285 57.4447 10.8285 57.0301V50.0132C10.8285 49.6201 10.8992 49.2716 11.0407 48.9722C11.1821 48.6712 11.3835 48.4286 11.6449 48.2413H11.6295C11.8909 48.074 12.163 47.9358 12.4443 47.8283C12.7257 47.7193 12.9978 47.6655 13.2592 47.6655H16.5523H16.5539ZM16.1757 57.9176C16.5477 57.9176 16.8106 57.8147 16.9613 57.6074C17.112 57.4002 17.1873 57.1698 17.1873 56.9134V50.1483C17.1873 49.9026 17.112 49.6754 16.9613 49.4681C16.8106 49.2608 16.5477 49.158 16.1757 49.158H13.6389C13.2669 49.158 13.004 49.2608 12.8533 49.4681C12.7026 49.6754 12.6273 49.9011 12.6273 50.1483V56.9134C12.6273 57.1698 12.7026 57.4002 12.8533 57.6074C13.004 57.8147 13.2653 57.9176 13.6389 57.9176H16.1757Z" fill="url(#paint1_linear_39_10986)"/>
<path d="M25.54 54.5338H24.3778C24.2071 54.5338 24.0733 54.4678 23.978 54.3342C23.8827 54.2006 23.835 54.021 23.835 53.7953C23.835 53.2932 24.0472 53.0414 24.47 53.0414H26.2365C26.6086 53.0414 26.8715 52.9385 27.0221 52.7312C27.1728 52.5239 27.2481 52.2982 27.2481 52.051V50.1456C27.2481 49.8999 27.1728 49.6727 27.0221 49.4654C26.8715 49.2581 26.6086 49.1552 26.2365 49.1552H23.0494V58.787C23.0494 59.2599 22.7527 59.4963 22.1577 59.4963C21.5627 59.4963 21.266 59.2599 21.266 58.787V48.5503C21.266 48.1956 21.3598 47.9591 21.5458 47.8409C21.7318 47.7227 21.9563 47.6643 22.2177 47.6643H26.6132C26.8745 47.6643 27.1467 47.718 27.428 47.8271C27.7094 47.9361 27.9815 48.0727 28.2429 48.2401H28.2275C28.4888 48.4274 28.6902 48.6716 28.8317 48.971C28.9731 49.2719 29.0439 49.6189 29.0439 50.012V52.1693C29.0439 52.9677 28.7717 53.5634 28.229 53.9565C28.1183 54.0348 27.9999 54.11 27.8739 54.1776C27.7478 54.2467 27.6202 54.3158 27.4895 54.3849L29.9064 58.2849C29.9371 58.334 29.9663 58.3985 29.9971 58.4768C30.0278 58.5551 30.0416 58.6196 30.0416 58.6687C30.0416 58.9052 29.871 59.1324 29.5281 59.3474V59.332C29.296 59.4702 29.1007 59.5393 28.9393 59.5393C28.7072 59.5393 28.5211 59.4257 28.3812 59.2L28.3966 59.2154L25.5416 54.5323L25.54 54.5338Z" fill="url(#paint2_linear_39_10986)"/>
<path d="M32.4109 59.4085C32.0388 59.4085 31.7867 59.3148 31.656 59.1275C31.5253 58.9402 31.4592 58.7344 31.4592 58.5072V48.5515C31.4592 48.3258 31.5238 48.12 31.656 47.9388C31.7867 47.7561 32.0388 47.6655 32.4109 47.6655H37.6674C38.0394 47.6655 38.2362 47.9112 38.2562 48.4041C38.2762 48.9062 38.0794 49.158 37.6674 49.158H33.2426V57.9176H37.9395C38.3116 57.9176 38.5037 58.1587 38.513 58.6408C38.5329 59.1521 38.3423 59.4085 37.9395 59.4085H32.4124H32.4109ZM37.1078 53.2929C37.1078 53.6384 36.9848 53.9285 36.7372 54.165C36.4897 54.4015 36.1914 54.5197 35.8394 54.5197C35.4873 54.5197 35.2044 54.4015 34.963 54.165C34.7217 53.9285 34.6002 53.6384 34.6002 53.2929C34.6002 52.9474 34.7217 52.6572 34.963 52.4208C35.2044 52.1843 35.4965 52.0661 35.8394 52.0661C36.1822 52.0661 36.4912 52.1843 36.7372 52.4208C36.9832 52.6572 37.1078 52.9474 37.1078 53.2929Z" fill="url(#paint3_linear_39_10986)"/>
<path d="M48.2234 59.4683C48.022 59.4683 47.8083 59.4361 47.5823 59.3716C47.3563 59.3071 47.1918 59.1873 47.0919 59.0092C46.8597 58.2415 46.6184 57.4538 46.3662 56.6462C46.1141 55.8386 45.862 55.0463 45.6114 54.2678C45.33 53.3527 45.0271 52.3992 44.7058 51.4089C44.3829 50.4185 44.0816 49.4711 43.8003 48.5652C43.7403 48.3487 43.7757 48.1583 43.9063 47.9971C44.037 47.8344 44.2231 47.7146 44.4644 47.6348C44.6151 47.5948 44.7458 47.5764 44.8565 47.5764C45.1993 47.5764 45.4207 47.7438 45.5206 48.0785L46.6384 51.5793C46.7383 51.934 46.8567 52.3224 46.9935 52.7462C47.1303 53.17 47.2672 53.603 47.4086 54.0467C47.5501 54.4905 47.69 54.9311 47.8314 55.3687C47.9728 55.8063 48.1035 56.2132 48.2234 56.5879C48.4141 55.9675 48.6232 55.295 48.8507 54.5718C49.0767 53.8487 49.3089 53.1116 49.5456 52.3639C49.7824 51.6161 50.0161 50.8745 50.2482 50.1406C50.4804 49.4067 50.6956 48.7203 50.897 48.08C51.0077 47.7453 51.2245 47.578 51.5458 47.578C51.6673 47.578 51.8072 47.5979 51.9686 47.6363C52.5221 47.7837 52.7389 48.0939 52.6174 48.5668C52.0732 50.2895 51.5243 52.0292 50.9708 53.7811C50.4174 55.5346 49.8685 57.2773 49.3242 59.0108C49.2443 59.2073 49.0952 59.3332 48.8784 59.3869C48.6616 59.4407 48.4433 59.4683 48.2219 59.4683H48.2234Z" fill="url(#paint4_linear_39_10986)"/>
<path d="M59.7618 47.6655C60.0231 47.6655 60.2953 47.7193 60.5766 47.8283C60.858 47.9373 61.1301 48.074 61.3914 48.2413H61.3761C61.6374 48.4286 61.8388 48.6728 61.9803 48.9722C62.1217 49.2731 62.1924 49.6201 62.1924 50.0132V57.0301C62.1924 57.8285 61.9203 58.4243 61.3776 58.8174C61.1162 59.0047 60.8457 59.149 60.5689 59.2534C60.2922 59.3563 60.0231 59.4085 59.7618 59.4085H56.4686C56.2072 59.4085 55.9366 59.3563 55.6599 59.2534C55.3832 59.1505 55.1141 59.0047 54.8528 58.8174C54.5914 58.6208 54.39 58.3767 54.2485 58.0865C54.1071 57.7963 54.0364 57.4447 54.0364 57.0301V50.0132C54.0364 49.6201 54.1071 49.2716 54.2485 48.9722C54.39 48.6712 54.5914 48.4286 54.8528 48.2413H54.8374C55.0987 48.074 55.3709 47.9358 55.6522 47.8283C55.9336 47.7193 56.2057 47.6655 56.4671 47.6655H59.7602H59.7618ZM59.3836 57.9176C59.7556 57.9176 60.0185 57.8147 60.1692 57.6074C60.3199 57.4002 60.3952 57.1698 60.3952 56.9134V50.1483C60.3952 49.9026 60.3199 49.6754 60.1692 49.4681C60.0185 49.2608 59.7556 49.158 59.3836 49.158H56.8468C56.4747 49.158 56.2118 49.2608 56.0612 49.4681C55.9105 49.6754 55.8352 49.9011 55.8352 50.1483V56.9134C55.8352 57.1698 55.9105 57.4002 56.0612 57.6074C56.2118 57.8147 56.4732 57.9176 56.8468 57.9176H59.3836Z" fill="url(#paint5_linear_39_10986)"/>
<path d="M65.4257 59.4085C65.0536 59.4085 64.8015 59.3149 64.6708 59.1276C64.5401 58.9402 64.474 58.7345 64.474 58.5072V48.2997C64.474 47.8268 64.7661 47.5903 65.3503 47.5903C65.9346 47.5903 66.2559 47.8268 66.2559 48.2997V57.9161H71.3002C71.663 57.9161 71.8444 58.1572 71.8444 58.6393C71.8644 59.1506 71.683 59.407 71.3002 59.407H65.4257V59.4085Z" fill="url(#paint6_linear_39_10986)"/>
<path d="M77.2654 58.8035C77.2654 59.2765 76.9641 59.5129 76.3598 59.5129C75.7556 59.5129 75.4681 59.2765 75.4681 58.8035V49.158H72.8253C72.4625 49.158 72.2718 48.9062 72.2518 48.4041C72.2518 47.9112 72.4425 47.6655 72.8253 47.6655H79.9082C80.2911 47.6655 80.4725 47.9112 80.4525 48.4041C80.4525 48.9062 80.2711 49.158 79.9082 49.158H77.2654V58.8035Z" fill="url(#paint7_linear_39_10986)"/>
<path d="M95.5855 47.5919C95.9068 47.5919 96.2604 47.6656 96.6432 47.813C96.9953 47.9512 97.1721 48.2123 97.1721 48.5961V58.7745C97.1721 59.2474 96.8754 59.4838 96.2804 59.4838C95.6854 59.4838 95.3887 59.2474 95.3887 58.7745V51.1818L94.9505 51.1372L94.3463 53.0581L92.5337 58.9664C92.423 59.3119 92.1509 59.4777 91.7189 59.4685C91.5282 59.4577 91.3606 59.4101 91.2207 59.3211C91.0793 59.232 90.984 59.1046 90.9332 58.9372L89.8463 55.4948C89.6249 54.8146 89.4035 54.1237 89.1821 53.4189C88.9607 52.7157 88.7193 51.9341 88.458 51.0774L88.0198 51.1357V58.7729C88.0198 59.2459 87.7231 59.4823 87.1296 59.4823C86.5362 59.4823 86.2379 59.2459 86.2379 58.7729V48.5946C86.2379 48.2199 86.4132 47.9589 86.7668 47.8115C87.1388 47.6641 87.4971 47.595 87.8384 47.6042C87.9891 47.6042 88.1459 47.6242 88.3073 47.6626C88.4687 47.7025 88.6194 47.7578 88.7608 47.833C88.9023 47.9067 89.0284 48.0004 89.139 48.114C89.2497 48.2276 89.3358 48.3581 89.3958 48.5055L91.7665 56.4084C91.9372 55.828 92.1186 55.1969 92.3108 54.5183C92.5014 53.8381 92.6982 53.1487 92.8996 52.45C93.101 51.7514 93.2993 51.0589 93.4961 50.3741C93.6929 49.6893 93.8759 49.0521 94.0465 48.461C94.1065 48.3228 94.1926 48.2 94.3033 48.091C94.414 47.9819 94.54 47.8913 94.6815 47.8176C94.8229 47.7439 94.9705 47.6871 95.1273 47.6472C95.2826 47.6088 95.4364 47.5889 95.5886 47.5889L95.5855 47.5919Z" fill="url(#paint8_linear_39_10986)"/>
<path d="M103.273 49.1119L99.9656 59.0385V59.0231C99.9057 59.1705 99.8227 59.2918 99.7166 59.3855C99.6105 59.4792 99.4829 59.5252 99.3307 59.5252C99.2507 59.5252 99.1723 59.5176 99.097 59.5037C99.0217 59.4884 98.9432 59.4715 98.8633 59.4515H98.8787C98.3052 59.275 98.093 58.9587 98.2437 58.5057L101.688 48.269C101.738 48.1108 101.826 47.9788 101.952 47.8698C102.078 47.7608 102.226 47.6978 102.398 47.6778C102.569 47.6487 102.735 47.6256 102.896 47.6118C103.057 47.5965 103.183 47.5903 103.274 47.5903C103.365 47.5903 103.491 47.598 103.652 47.6118C103.814 47.6272 103.98 47.6441 104.151 47.664C104.292 47.684 104.43 47.7577 104.566 47.8851C104.701 48.0126 104.804 48.1415 104.875 48.269C105.439 49.9626 106.009 51.6684 106.589 53.3881C107.167 55.1063 107.739 56.8121 108.303 58.5072C108.445 58.9602 108.232 59.275 107.668 59.4531C107.587 59.473 107.514 59.4899 107.45 59.5053C107.384 59.5206 107.311 59.5268 107.232 59.5268C107.09 59.5268 106.962 59.4792 106.847 59.387C106.732 59.2934 106.649 59.1721 106.598 59.0247V59.04L103.276 49.1135L103.273 49.1119ZM104.406 55.8479C104.406 56.1626 104.292 56.4313 104.066 56.6524C103.84 56.8735 103.565 56.9856 103.243 56.9856C102.922 56.9856 102.648 56.8751 102.429 56.6524C102.207 56.4313 102.097 56.1626 102.097 55.8479C102.097 55.5331 102.207 55.2644 102.429 55.0433C102.65 54.8222 102.922 54.7101 103.243 54.7101C103.565 54.7101 103.84 54.8207 104.066 55.0433C104.292 55.2659 104.406 55.5331 104.406 55.8479Z" fill="url(#paint9_linear_39_10986)"/>
<path d="M113.693 58.8035C113.693 59.2765 113.392 59.5129 112.788 59.5129C112.184 59.5129 111.896 59.2765 111.896 58.8035V49.158H109.253C108.89 49.158 108.7 48.9062 108.68 48.4041C108.68 47.9112 108.87 47.6655 109.253 47.6655H116.336C116.719 47.6655 116.9 47.9112 116.88 48.4041C116.88 48.9062 116.699 49.158 116.336 49.158H113.693V58.8035Z" fill="url(#paint10_linear_39_10986)"/>
<path d="M122.498 54.5338H121.336C121.165 54.5338 121.031 54.4678 120.936 54.3342C120.841 54.2006 120.793 54.021 120.793 53.7953C120.793 53.2932 121.005 53.0414 121.428 53.0414H123.195C123.567 53.0414 123.83 52.9385 123.98 52.7312C124.131 52.5239 124.206 52.2982 124.206 52.051V50.1456C124.206 49.8999 124.131 49.6727 123.98 49.4654C123.83 49.2581 123.567 49.1552 123.195 49.1552H120.008V58.787C120.008 59.2599 119.711 59.4963 119.116 59.4963C118.521 59.4963 118.224 59.2599 118.224 58.787V48.5503C118.224 48.1956 118.318 47.9591 118.504 47.8409C118.69 47.7227 118.914 47.6643 119.176 47.6643H123.571C123.833 47.6643 124.105 47.718 124.386 47.8271C124.667 47.9361 124.94 48.0727 125.201 48.2401H125.186C125.447 48.4274 125.648 48.6716 125.79 48.971C125.931 49.2719 126.002 49.6189 126.002 50.012V52.1693C126.002 52.9677 125.73 53.5634 125.187 53.9565C125.076 54.0348 124.958 54.11 124.832 54.1776C124.706 54.2467 124.578 54.3158 124.448 54.3849L126.864 58.2849C126.895 58.334 126.924 58.3985 126.955 58.4768C126.986 58.5551 127 58.6196 127 58.6687C127 58.9052 126.829 59.1324 126.486 59.3474V59.332C126.254 59.4702 126.059 59.5393 125.897 59.5393C125.665 59.5393 125.479 59.4257 125.339 59.2L125.355 59.2154L122.5 54.5323L122.498 54.5338Z" fill="url(#paint11_linear_39_10986)"/>
<path d="M130.261 58.7729C130.261 59.2458 129.959 59.4822 129.355 59.4822C128.751 59.4822 128.464 59.2458 128.464 58.7729V48.2997C128.464 47.8268 128.76 47.5903 129.355 47.5903C129.95 47.5903 130.261 47.8268 130.261 48.2997V58.7729Z" fill="url(#paint12_linear_39_10986)"/>
<path d="M138.853 47.9316C138.933 47.8225 139.016 47.735 139.102 47.6659C139.189 47.5968 139.301 47.5631 139.442 47.5631C139.584 47.5631 139.744 47.6076 139.925 47.6966C140.308 47.8732 140.498 48.1005 140.498 48.3768C140.498 48.4459 140.491 48.5166 140.475 48.5903C140.46 48.664 140.432 48.7254 140.392 48.7745V48.7592L137.477 53.605L140.317 58.3019C140.368 58.4201 140.392 58.5383 140.392 58.6565C140.392 58.9421 140.231 59.1694 139.91 59.3367C139.668 59.455 139.467 59.5133 139.305 59.5133C139.104 59.5133 138.923 59.3997 138.761 59.174L136.163 54.8748C135.971 55.2003 135.765 55.5442 135.543 55.9081C135.322 56.272 135.097 56.6451 134.871 57.0228C134.645 57.4021 134.418 57.7737 134.192 58.1376C133.966 58.5015 133.757 58.8469 133.565 59.1709C133.485 59.2799 133.403 59.3628 133.323 59.4227C133.242 59.4811 133.142 59.5118 133.022 59.5118C132.851 59.5118 132.654 59.4534 132.433 59.3352C132.09 59.1479 131.92 58.9222 131.92 58.655C131.92 58.5859 131.929 58.5245 131.95 58.4708C131.97 58.417 131.995 58.3556 132.026 58.2865V58.3019C132.488 57.5234 132.965 56.7357 133.452 55.9388C133.941 55.1404 134.421 54.3481 134.895 53.5604L132.01 48.7592C131.98 48.7008 131.95 48.6317 131.92 48.5519C131.889 48.4736 131.875 48.4091 131.875 48.3599C131.875 48.0943 132.076 47.8732 132.479 47.6951C132.641 47.6061 132.801 47.5615 132.962 47.5615C133.093 47.5615 133.203 47.5968 133.294 47.6644C133.385 47.7335 133.469 47.8225 133.551 47.93L136.209 52.3029L138.852 47.93L138.853 47.9316Z" fill="url(#paint13_linear_39_10986)"/>
<path d="M8.65607 57.0301C8.65607 57.8285 8.38395 58.4243 7.84123 58.8174C7.57987 59.0047 7.30928 59.149 7.03254 59.2534C6.75581 59.3563 6.48676 59.4085 6.22539 59.4085H2.93222C2.67085 59.4085 2.40026 59.3563 2.12353 59.2534C1.84679 59.1505 1.57774 59.0047 1.31638 58.8174C1.05501 58.6208 0.853609 58.3767 0.712165 58.0865C0.570722 57.7963 0.5 57.4447 0.5 57.0301V50.0132C0.5 49.6201 0.570722 49.2716 0.712165 48.9722C0.853609 48.6712 1.05501 48.4286 1.31638 48.2413H1.301C1.56236 48.074 1.83449 47.9358 2.11584 47.8283C2.39719 47.7193 2.66932 47.6655 2.93068 47.6655H6.22386C6.48522 47.6655 6.75734 47.7193 7.03869 47.8283C7.32004 47.9373 7.59217 48.074 7.85353 48.2413H7.83816C8.09952 48.4286 8.30093 48.6728 8.44237 48.9722C8.58381 49.2731 8.65453 49.6201 8.65453 50.0132V51.0327C8.65453 51.5056 8.3532 51.7421 7.74899 51.7421C7.14478 51.7421 6.85881 51.5056 6.85881 51.0327V50.1468C6.85881 49.9011 6.78348 49.6739 6.63281 49.4666C6.48214 49.2593 6.21924 49.1564 5.84719 49.1564H3.31042C2.93837 49.1564 2.67546 49.2593 2.5248 49.4666C2.37413 49.6739 2.29879 49.8996 2.29879 50.1468V56.9119C2.29879 57.1683 2.37413 57.3986 2.5248 57.6059C2.67546 57.8132 2.93683 57.9161 3.31042 57.9161H5.84719C6.21924 57.9161 6.48214 57.8132 6.63281 57.6059C6.78348 57.3986 6.85881 57.1683 6.85881 56.9119V56.0551C6.85881 55.593 7.15554 55.3611 7.74899 55.3611C8.34244 55.3611 8.65453 55.593 8.65453 56.0551V57.0301H8.65607Z" fill="white"/>
<path d="M16.5539 47.6655C16.8152 47.6655 17.0874 47.7193 17.3687 47.8283C17.6501 47.9373 17.9222 48.074 18.1836 48.2413H18.1682C18.4295 48.4286 18.631 48.6728 18.7724 48.9722C18.9138 49.2731 18.9846 49.6201 18.9846 50.0132V57.0301C18.9846 57.8285 18.7124 58.4243 18.1697 58.8174C17.9084 59.0047 17.6378 59.149 17.361 59.2534C17.0843 59.3563 16.8152 59.4085 16.5539 59.4085H13.2607C12.9993 59.4085 12.7288 59.3563 12.452 59.2534C12.1753 59.1505 11.9062 59.0047 11.6449 58.8174C11.3835 58.6208 11.1821 58.3767 11.0407 58.0865C10.8992 57.7963 10.8285 57.4447 10.8285 57.0301V50.0132C10.8285 49.6201 10.8992 49.2716 11.0407 48.9722C11.1821 48.6712 11.3835 48.4286 11.6449 48.2413H11.6295C11.8909 48.074 12.163 47.9358 12.4443 47.8283C12.7257 47.7193 12.9978 47.6655 13.2592 47.6655H16.5523H16.5539ZM16.1757 57.9176C16.5477 57.9176 16.8106 57.8147 16.9613 57.6074C17.112 57.4002 17.1873 57.1698 17.1873 56.9134V50.1483C17.1873 49.9026 17.112 49.6754 16.9613 49.4681C16.8106 49.2608 16.5477 49.158 16.1757 49.158H13.6389C13.2669 49.158 13.004 49.2608 12.8533 49.4681C12.7026 49.6754 12.6273 49.9011 12.6273 50.1483V56.9134C12.6273 57.1698 12.7026 57.4002 12.8533 57.6074C13.004 57.8147 13.2653 57.9176 13.6389 57.9176H16.1757Z" fill="white"/>
<path d="M25.54 54.5338H24.3778C24.2071 54.5338 24.0733 54.4678 23.978 54.3342C23.8827 54.2006 23.835 54.021 23.835 53.7953C23.835 53.2932 24.0472 53.0414 24.47 53.0414H26.2365C26.6086 53.0414 26.8715 52.9385 27.0221 52.7312C27.1728 52.5239 27.2481 52.2982 27.2481 52.051V50.1456C27.2481 49.8999 27.1728 49.6727 27.0221 49.4654C26.8715 49.2581 26.6086 49.1552 26.2365 49.1552H23.0494V58.787C23.0494 59.2599 22.7527 59.4963 22.1577 59.4963C21.5627 59.4963 21.266 59.2599 21.266 58.787V48.5503C21.266 48.1956 21.3598 47.9591 21.5458 47.8409C21.7318 47.7227 21.9563 47.6643 22.2177 47.6643H26.6132C26.8745 47.6643 27.1467 47.718 27.428 47.8271C27.7094 47.9361 27.9815 48.0727 28.2429 48.2401H28.2275C28.4888 48.4274 28.6902 48.6716 28.8317 48.971C28.9731 49.2719 29.0439 49.6189 29.0439 50.012V52.1693C29.0439 52.9677 28.7717 53.5634 28.229 53.9565C28.1183 54.0348 27.9999 54.11 27.8739 54.1776C27.7478 54.2467 27.6202 54.3158 27.4895 54.3849L29.9064 58.2849C29.9371 58.334 29.9663 58.3985 29.9971 58.4768C30.0278 58.5551 30.0416 58.6196 30.0416 58.6687C30.0416 58.9052 29.871 59.1324 29.5281 59.3474V59.332C29.296 59.4702 29.1007 59.5393 28.9393 59.5393C28.7072 59.5393 28.5211 59.4257 28.3812 59.2L28.3966 59.2154L25.5416 54.5323L25.54 54.5338Z" fill="white"/>
<path d="M32.4109 59.4085C32.0388 59.4085 31.7867 59.3148 31.656 59.1275C31.5253 58.9402 31.4592 58.7344 31.4592 58.5072V48.5515C31.4592 48.3258 31.5238 48.12 31.656 47.9388C31.7867 47.7561 32.0388 47.6655 32.4109 47.6655H37.6674C38.0394 47.6655 38.2362 47.9112 38.2562 48.4041C38.2762 48.9062 38.0794 49.158 37.6674 49.158H33.2426V57.9176H37.9395C38.3116 57.9176 38.5037 58.1587 38.513 58.6408C38.5329 59.1521 38.3423 59.4085 37.9395 59.4085H32.4124H32.4109ZM37.1078 53.2929C37.1078 53.6384 36.9848 53.9285 36.7372 54.165C36.4897 54.4015 36.1914 54.5197 35.8394 54.5197C35.4873 54.5197 35.2044 54.4015 34.963 54.165C34.7217 53.9285 34.6002 53.6384 34.6002 53.2929C34.6002 52.9474 34.7217 52.6572 34.963 52.4208C35.2044 52.1843 35.4965 52.0661 35.8394 52.0661C36.1822 52.0661 36.4912 52.1843 36.7372 52.4208C36.9832 52.6572 37.1078 52.9474 37.1078 53.2929Z" fill="white"/>
<path d="M48.2234 59.4683C48.022 59.4683 47.8083 59.4361 47.5823 59.3716C47.3563 59.3071 47.1918 59.1873 47.0919 59.0092C46.8597 58.2415 46.6184 57.4538 46.3662 56.6462C46.1141 55.8386 45.862 55.0463 45.6114 54.2678C45.33 53.3527 45.0271 52.3992 44.7058 51.4089C44.3829 50.4185 44.0816 49.4711 43.8003 48.5652C43.7403 48.3487 43.7757 48.1583 43.9063 47.9971C44.037 47.8344 44.2231 47.7146 44.4644 47.6348C44.6151 47.5948 44.7458 47.5764 44.8565 47.5764C45.1993 47.5764 45.4207 47.7438 45.5206 48.0785L46.6384 51.5793C46.7383 51.934 46.8567 52.3224 46.9935 52.7462C47.1303 53.17 47.2672 53.603 47.4086 54.0467C47.5501 54.4905 47.69 54.9311 47.8314 55.3687C47.9728 55.8063 48.1035 56.2132 48.2234 56.5879C48.4141 55.9675 48.6232 55.295 48.8507 54.5718C49.0767 53.8487 49.3089 53.1116 49.5456 52.3639C49.7824 51.6161 50.0161 50.8745 50.2482 50.1406C50.4804 49.4067 50.6956 48.7203 50.897 48.08C51.0077 47.7453 51.2245 47.578 51.5458 47.578C51.6673 47.578 51.8072 47.5979 51.9686 47.6363C52.5221 47.7837 52.7389 48.0939 52.6174 48.5668C52.0732 50.2895 51.5243 52.0292 50.9708 53.7811C50.4174 55.5346 49.8685 57.2773 49.3242 59.0108C49.2443 59.2073 49.0952 59.3332 48.8784 59.3869C48.6616 59.4407 48.4433 59.4683 48.2219 59.4683H48.2234Z" fill="white"/>
<path d="M59.7618 47.6655C60.0231 47.6655 60.2953 47.7193 60.5766 47.8283C60.858 47.9373 61.1301 48.074 61.3914 48.2413H61.3761C61.6374 48.4286 61.8388 48.6728 61.9803 48.9722C62.1217 49.2731 62.1924 49.6201 62.1924 50.0132V57.0301C62.1924 57.8285 61.9203 58.4243 61.3776 58.8174C61.1162 59.0047 60.8457 59.149 60.5689 59.2534C60.2922 59.3563 60.0231 59.4085 59.7618 59.4085H56.4686C56.2072 59.4085 55.9366 59.3563 55.6599 59.2534C55.3832 59.1505 55.1141 59.0047 54.8528 58.8174C54.5914 58.6208 54.39 58.3767 54.2485 58.0865C54.1071 57.7963 54.0364 57.4447 54.0364 57.0301V50.0132C54.0364 49.6201 54.1071 49.2716 54.2485 48.9722C54.39 48.6712 54.5914 48.4286 54.8528 48.2413H54.8374C55.0987 48.074 55.3709 47.9358 55.6522 47.8283C55.9336 47.7193 56.2057 47.6655 56.4671 47.6655H59.7602H59.7618ZM59.3836 57.9176C59.7556 57.9176 60.0185 57.8147 60.1692 57.6074C60.3199 57.4002 60.3952 57.1698 60.3952 56.9134V50.1483C60.3952 49.9026 60.3199 49.6754 60.1692 49.4681C60.0185 49.2608 59.7556 49.158 59.3836 49.158H56.8468C56.4747 49.158 56.2118 49.2608 56.0612 49.4681C55.9105 49.6754 55.8352 49.9011 55.8352 50.1483V56.9134C55.8352 57.1698 55.9105 57.4002 56.0612 57.6074C56.2118 57.8147 56.4732 57.9176 56.8468 57.9176H59.3836Z" fill="white"/>
<path d="M65.4257 59.4085C65.0536 59.4085 64.8015 59.3149 64.6708 59.1276C64.5401 58.9402 64.474 58.7345 64.474 58.5072V48.2997C64.474 47.8268 64.7661 47.5903 65.3503 47.5903C65.9346 47.5903 66.2559 47.8268 66.2559 48.2997V57.9161H71.3002C71.663 57.9161 71.8444 58.1572 71.8444 58.6393C71.8644 59.1506 71.683 59.407 71.3002 59.407H65.4257V59.4085Z" fill="white"/>
<path d="M77.2654 58.8035C77.2654 59.2765 76.9641 59.5129 76.3598 59.5129C75.7556 59.5129 75.4681 59.2765 75.4681 58.8035V49.158H72.8253C72.4625 49.158 72.2718 48.9062 72.2518 48.4041C72.2518 47.9112 72.4425 47.6655 72.8253 47.6655H79.9082C80.2911 47.6655 80.4725 47.9112 80.4525 48.4041C80.4525 48.9062 80.2711 49.158 79.9082 49.158H77.2654V58.8035Z" fill="white"/>
<path d="M95.5855 47.5919C95.9068 47.5919 96.2604 47.6656 96.6432 47.813C96.9953 47.9512 97.1721 48.2123 97.1721 48.5961V58.7745C97.1721 59.2474 96.8754 59.4838 96.2804 59.4838C95.6854 59.4838 95.3887 59.2474 95.3887 58.7745V51.1818L94.9505 51.1372L94.3463 53.0581L92.5337 58.9664C92.423 59.3119 92.1509 59.4777 91.7189 59.4685C91.5282 59.4577 91.3606 59.4101 91.2207 59.3211C91.0793 59.232 90.984 59.1046 90.9332 58.9372L89.8463 55.4948C89.6249 54.8146 89.4035 54.1237 89.1821 53.4189C88.9607 52.7157 88.7193 51.9341 88.458 51.0774L88.0198 51.1357V58.7729C88.0198 59.2459 87.7231 59.4823 87.1296 59.4823C86.5362 59.4823 86.2379 59.2459 86.2379 58.7729V48.5946C86.2379 48.2199 86.4132 47.9589 86.7668 47.8115C87.1388 47.6641 87.4971 47.595 87.8384 47.6042C87.9891 47.6042 88.1459 47.6242 88.3073 47.6626C88.4687 47.7025 88.6194 47.7578 88.7608 47.833C88.9023 47.9067 89.0284 48.0004 89.139 48.114C89.2497 48.2276 89.3358 48.3581 89.3958 48.5055L91.7665 56.4084C91.9372 55.828 92.1186 55.1969 92.3108 54.5183C92.5014 53.8381 92.6982 53.1487 92.8996 52.45C93.101 51.7514 93.2993 51.0589 93.4961 50.3741C93.6929 49.6893 93.8759 49.0521 94.0465 48.461C94.1065 48.3228 94.1926 48.2 94.3033 48.091C94.414 47.9819 94.54 47.8913 94.6815 47.8176C94.8229 47.7439 94.9705 47.6871 95.1273 47.6472C95.2826 47.6088 95.4364 47.5889 95.5886 47.5889L95.5855 47.5919Z" fill="white"/>
<path d="M103.273 49.1119L99.9656 59.0385V59.0231C99.9057 59.1705 99.8227 59.2918 99.7166 59.3855C99.6105 59.4792 99.4829 59.5252 99.3307 59.5252C99.2507 59.5252 99.1723 59.5176 99.097 59.5037C99.0217 59.4884 98.9432 59.4715 98.8633 59.4515H98.8787C98.3052 59.275 98.093 58.9587 98.2437 58.5057L101.688 48.269C101.738 48.1108 101.826 47.9788 101.952 47.8698C102.078 47.7608 102.226 47.6978 102.398 47.6778C102.569 47.6487 102.735 47.6256 102.896 47.6118C103.057 47.5965 103.183 47.5903 103.274 47.5903C103.365 47.5903 103.491 47.598 103.652 47.6118C103.814 47.6272 103.98 47.6441 104.151 47.664C104.292 47.684 104.43 47.7577 104.566 47.8851C104.701 48.0126 104.804 48.1415 104.875 48.269C105.439 49.9626 106.009 51.6684 106.589 53.3881C107.167 55.1063 107.739 56.8121 108.303 58.5072C108.445 58.9602 108.232 59.275 107.668 59.4531C107.587 59.473 107.514 59.4899 107.45 59.5053C107.384 59.5206 107.311 59.5268 107.232 59.5268C107.09 59.5268 106.962 59.4792 106.847 59.387C106.732 59.2934 106.649 59.1721 106.598 59.0247V59.04L103.276 49.1135L103.273 49.1119ZM104.406 55.8479C104.406 56.1626 104.292 56.4313 104.066 56.6524C103.84 56.8735 103.565 56.9856 103.243 56.9856C102.922 56.9856 102.648 56.8751 102.429 56.6524C102.207 56.4313 102.097 56.1626 102.097 55.8479C102.097 55.5331 102.207 55.2644 102.429 55.0433C102.65 54.8222 102.922 54.7101 103.243 54.7101C103.565 54.7101 103.84 54.8207 104.066 55.0433C104.292 55.2659 104.406 55.5331 104.406 55.8479Z" fill="white"/>
<path d="M113.693 58.8035C113.693 59.2765 113.392 59.5129 112.788 59.5129C112.184 59.5129 111.896 59.2765 111.896 58.8035V49.158H109.253C108.89 49.158 108.7 48.9062 108.68 48.4041C108.68 47.9112 108.87 47.6655 109.253 47.6655H116.336C116.719 47.6655 116.9 47.9112 116.88 48.4041C116.88 48.9062 116.699 49.158 116.336 49.158H113.693V58.8035Z" fill="white"/>
<path d="M122.498 54.5338H121.336C121.165 54.5338 121.031 54.4678 120.936 54.3342C120.841 54.2006 120.793 54.021 120.793 53.7953C120.793 53.2932 121.005 53.0414 121.428 53.0414H123.195C123.567 53.0414 123.83 52.9385 123.98 52.7312C124.131 52.5239 124.206 52.2982 124.206 52.051V50.1456C124.206 49.8999 124.131 49.6727 123.98 49.4654C123.83 49.2581 123.567 49.1552 123.195 49.1552H120.008V58.787C120.008 59.2599 119.711 59.4963 119.116 59.4963C118.521 59.4963 118.224 59.2599 118.224 58.787V48.5503C118.224 48.1956 118.318 47.9591 118.504 47.8409C118.69 47.7227 118.914 47.6643 119.176 47.6643H123.571C123.833 47.6643 124.105 47.718 124.386 47.8271C124.667 47.9361 124.94 48.0727 125.201 48.2401H125.186C125.447 48.4274 125.648 48.6716 125.79 48.971C125.931 49.2719 126.002 49.6189 126.002 50.012V52.1693C126.002 52.9677 125.73 53.5634 125.187 53.9565C125.076 54.0348 124.958 54.11 124.832 54.1776C124.706 54.2467 124.578 54.3158 124.448 54.3849L126.864 58.2849C126.895 58.334 126.924 58.3985 126.955 58.4768C126.986 58.5551 127 58.6196 127 58.6687C127 58.9052 126.829 59.1324 126.486 59.3474V59.332C126.254 59.4702 126.059 59.5393 125.897 59.5393C125.665 59.5393 125.479 59.4257 125.339 59.2L125.355 59.2154L122.5 54.5323L122.498 54.5338Z" fill="white"/>
<path d="M130.261 58.7729C130.261 59.2458 129.959 59.4822 129.355 59.4822C128.751 59.4822 128.464 59.2458 128.464 58.7729V48.2997C128.464 47.8268 128.76 47.5903 129.355 47.5903C129.95 47.5903 130.261 47.8268 130.261 48.2997V58.7729Z" fill="white"/>
<path d="M138.853 47.9316C138.933 47.8225 139.016 47.735 139.102 47.6659C139.189 47.5968 139.301 47.5631 139.442 47.5631C139.584 47.5631 139.744 47.6076 139.925 47.6966C140.308 47.8732 140.498 48.1005 140.498 48.3768C140.498 48.4459 140.491 48.5166 140.475 48.5903C140.46 48.664 140.432 48.7254 140.392 48.7745V48.7592L137.477 53.605L140.317 58.3019C140.368 58.4201 140.392 58.5383 140.392 58.6565C140.392 58.9421 140.231 59.1694 139.91 59.3367C139.668 59.455 139.467 59.5133 139.305 59.5133C139.104 59.5133 138.923 59.3997 138.761 59.174L136.163 54.8748C135.971 55.2003 135.765 55.5442 135.543 55.9081C135.322 56.272 135.097 56.6451 134.871 57.0228C134.645 57.4021 134.418 57.7737 134.192 58.1376C133.966 58.5015 133.757 58.8469 133.565 59.1709C133.485 59.2799 133.403 59.3628 133.323 59.4227C133.242 59.4811 133.142 59.5118 133.022 59.5118C132.851 59.5118 132.654 59.4534 132.433 59.3352C132.09 59.1479 131.92 58.9222 131.92 58.655C131.92 58.5859 131.929 58.5245 131.95 58.4708C131.97 58.417 131.995 58.3556 132.026 58.2865V58.3019C132.488 57.5234 132.965 56.7357 133.452 55.9388C133.941 55.1404 134.421 54.3481 134.895 53.5604L132.01 48.7592C131.98 48.7008 131.95 48.6317 131.92 48.5519C131.889 48.4736 131.875 48.4091 131.875 48.3599C131.875 48.0943 132.076 47.8732 132.479 47.6951C132.641 47.6061 132.801 47.5615 132.962 47.5615C133.093 47.5615 133.203 47.5968 133.294 47.6644C133.385 47.7335 133.469 47.8225 133.551 47.93L136.209 52.3029L138.852 47.93L138.853 47.9316Z" fill="white"/>
<path d="M8.65607 57.0301C8.65607 57.8285 8.38395 58.4243 7.84123 58.8174C7.57987 59.0047 7.30928 59.149 7.03254 59.2534C6.75581 59.3563 6.48676 59.4085 6.22539 59.4085H2.93222C2.67085 59.4085 2.40026 59.3563 2.12353 59.2534C1.84679 59.1505 1.57774 59.0047 1.31638 58.8174C1.05501 58.6208 0.853609 58.3767 0.712165 58.0865C0.570722 57.7963 0.5 57.4447 0.5 57.0301V50.0132C0.5 49.6201 0.570722 49.2716 0.712165 48.9722C0.853609 48.6712 1.05501 48.4286 1.31638 48.2413H1.301C1.56236 48.074 1.83449 47.9358 2.11584 47.8283C2.39719 47.7193 2.66932 47.6655 2.93068 47.6655H6.22386C6.48522 47.6655 6.75734 47.7193 7.03869 47.8283C7.32004 47.9373 7.59217 48.074 7.85353 48.2413H7.83816C8.09952 48.4286 8.30093 48.6728 8.44237 48.9722C8.58381 49.2731 8.65453 49.6201 8.65453 50.0132V51.0327C8.65453 51.5056 8.3532 51.7421 7.74899 51.7421C7.14478 51.7421 6.85881 51.5056 6.85881 51.0327V50.1468C6.85881 49.9011 6.78348 49.6739 6.63281 49.4666C6.48214 49.2593 6.21924 49.1564 5.84719 49.1564H3.31042C2.93837 49.1564 2.67546 49.2593 2.5248 49.4666C2.37413 49.6739 2.29879 49.8996 2.29879 50.1468V56.9119C2.29879 57.1683 2.37413 57.3986 2.5248 57.6059C2.67546 57.8132 2.93683 57.9161 3.31042 57.9161H5.84719C6.21924 57.9161 6.48214 57.8132 6.63281 57.6059C6.78348 57.3986 6.85881 57.1683 6.85881 56.9119V56.0551C6.85881 55.593 7.15554 55.3611 7.74899 55.3611C8.34244 55.3611 8.65453 55.593 8.65453 56.0551V57.0301H8.65607Z" fill="white"/>
<path d="M16.5539 47.6655C16.8152 47.6655 17.0874 47.7193 17.3687 47.8283C17.6501 47.9373 17.9222 48.074 18.1836 48.2413H18.1682C18.4295 48.4286 18.631 48.6728 18.7724 48.9722C18.9138 49.2731 18.9846 49.6201 18.9846 50.0132V57.0301C18.9846 57.8285 18.7124 58.4243 18.1697 58.8174C17.9084 59.0047 17.6378 59.149 17.361 59.2534C17.0843 59.3563 16.8152 59.4085 16.5539 59.4085H13.2607C12.9993 59.4085 12.7288 59.3563 12.452 59.2534C12.1753 59.1505 11.9062 59.0047 11.6449 58.8174C11.3835 58.6208 11.1821 58.3767 11.0407 58.0865C10.8992 57.7963 10.8285 57.4447 10.8285 57.0301V50.0132C10.8285 49.6201 10.8992 49.2716 11.0407 48.9722C11.1821 48.6712 11.3835 48.4286 11.6449 48.2413H11.6295C11.8909 48.074 12.163 47.9358 12.4443 47.8283C12.7257 47.7193 12.9978 47.6655 13.2592 47.6655H16.5523H16.5539ZM16.1757 57.9176C16.5477 57.9176 16.8106 57.8147 16.9613 57.6074C17.112 57.4002 17.1873 57.1698 17.1873 56.9134V50.1483C17.1873 49.9026 17.112 49.6754 16.9613 49.4681C16.8106 49.2608 16.5477 49.158 16.1757 49.158H13.6389C13.2669 49.158 13.004 49.2608 12.8533 49.4681C12.7026 49.6754 12.6273 49.9011 12.6273 50.1483V56.9134C12.6273 57.1698 12.7026 57.4002 12.8533 57.6074C13.004 57.8147 13.2653 57.9176 13.6389 57.9176H16.1757Z" fill="white"/>
<path d="M25.54 54.5338H24.3778C24.2071 54.5338 24.0733 54.4678 23.978 54.3342C23.8827 54.2006 23.835 54.021 23.835 53.7953C23.835 53.2932 24.0472 53.0414 24.47 53.0414H26.2365C26.6086 53.0414 26.8715 52.9385 27.0221 52.7312C27.1728 52.5239 27.2481 52.2982 27.2481 52.051V50.1456C27.2481 49.8999 27.1728 49.6727 27.0221 49.4654C26.8715 49.2581 26.6086 49.1552 26.2365 49.1552H23.0494V58.787C23.0494 59.2599 22.7527 59.4963 22.1577 59.4963C21.5627 59.4963 21.266 59.2599 21.266 58.787V48.5503C21.266 48.1956 21.3598 47.9591 21.5458 47.8409C21.7318 47.7227 21.9563 47.6643 22.2177 47.6643H26.6132C26.8745 47.6643 27.1467 47.718 27.428 47.8271C27.7094 47.9361 27.9815 48.0727 28.2429 48.2401H28.2275C28.4888 48.4274 28.6902 48.6716 28.8317 48.971C28.9731 49.2719 29.0439 49.6189 29.0439 50.012V52.1693C29.0439 52.9677 28.7717 53.5634 28.229 53.9565C28.1183 54.0348 27.9999 54.11 27.8739 54.1776C27.7478 54.2467 27.6202 54.3158 27.4895 54.3849L29.9064 58.2849C29.9371 58.334 29.9663 58.3985 29.9971 58.4768C30.0278 58.5551 30.0416 58.6196 30.0416 58.6687C30.0416 58.9052 29.871 59.1324 29.5281 59.3474V59.332C29.296 59.4702 29.1007 59.5393 28.9393 59.5393C28.7072 59.5393 28.5211 59.4257 28.3812 59.2L28.3966 59.2154L25.5416 54.5323L25.54 54.5338Z" fill="white"/>
<path d="M32.4109 59.4085C32.0388 59.4085 31.7867 59.3148 31.656 59.1275C31.5253 58.9402 31.4592 58.7344 31.4592 58.5072V48.5515C31.4592 48.3258 31.5238 48.12 31.656 47.9388C31.7867 47.7561 32.0388 47.6655 32.4109 47.6655H37.6674C38.0394 47.6655 38.2362 47.9112 38.2562 48.4041C38.2762 48.9062 38.0794 49.158 37.6674 49.158H33.2426V57.9176H37.9395C38.3116 57.9176 38.5037 58.1587 38.513 58.6408C38.5329 59.1521 38.3423 59.4085 37.9395 59.4085H32.4124H32.4109ZM37.1078 53.2929C37.1078 53.6384 36.9848 53.9285 36.7372 54.165C36.4897 54.4015 36.1914 54.5197 35.8394 54.5197C35.4873 54.5197 35.2044 54.4015 34.963 54.165C34.7217 53.9285 34.6002 53.6384 34.6002 53.2929C34.6002 52.9474 34.7217 52.6572 34.963 52.4208C35.2044 52.1843 35.4965 52.0661 35.8394 52.0661C36.1822 52.0661 36.4912 52.1843 36.7372 52.4208C36.9832 52.6572 37.1078 52.9474 37.1078 53.2929Z" fill="white"/>
<path d="M48.2234 59.4683C48.022 59.4683 47.8083 59.4361 47.5823 59.3716C47.3563 59.3071 47.1918 59.1873 47.0919 59.0092C46.8597 58.2415 46.6184 57.4538 46.3662 56.6462C46.1141 55.8386 45.862 55.0463 45.6114 54.2678C45.33 53.3527 45.0271 52.3992 44.7058 51.4089C44.3829 50.4185 44.0816 49.4711 43.8003 48.5652C43.7403 48.3487 43.7757 48.1583 43.9063 47.9971C44.037 47.8344 44.2231 47.7146 44.4644 47.6348C44.6151 47.5948 44.7458 47.5764 44.8565 47.5764C45.1993 47.5764 45.4207 47.7438 45.5206 48.0785L46.6384 51.5793C46.7383 51.934 46.8567 52.3224 46.9935 52.7462C47.1303 53.17 47.2672 53.603 47.4086 54.0467C47.5501 54.4905 47.69 54.9311 47.8314 55.3687C47.9728 55.8063 48.1035 56.2132 48.2234 56.5879C48.4141 55.9675 48.6232 55.295 48.8507 54.5718C49.0767 53.8487 49.3089 53.1116 49.5456 52.3639C49.7824 51.6161 50.0161 50.8745 50.2482 50.1406C50.4804 49.4067 50.6956 48.7203 50.897 48.08C51.0077 47.7453 51.2245 47.578 51.5458 47.578C51.6673 47.578 51.8072 47.5979 51.9686 47.6363C52.5221 47.7837 52.7389 48.0939 52.6174 48.5668C52.0732 50.2895 51.5243 52.0292 50.9708 53.7811C50.4174 55.5346 49.8685 57.2773 49.3242 59.0108C49.2443 59.2073 49.0952 59.3332 48.8784 59.3869C48.6616 59.4407 48.4433 59.4683 48.2219 59.4683H48.2234Z" fill="white"/>
<path d="M59.7618 47.6655C60.0231 47.6655 60.2953 47.7193 60.5766 47.8283C60.858 47.9373 61.1301 48.074 61.3914 48.2413H61.3761C61.6374 48.4286 61.8388 48.6728 61.9803 48.9722C62.1217 49.2731 62.1924 49.6201 62.1924 50.0132V57.0301C62.1924 57.8285 61.9203 58.4243 61.3776 58.8174C61.1162 59.0047 60.8457 59.149 60.5689 59.2534C60.2922 59.3563 60.0231 59.4085 59.7618 59.4085H56.4686C56.2072 59.4085 55.9366 59.3563 55.6599 59.2534C55.3832 59.1505 55.1141 59.0047 54.8528 58.8174C54.5914 58.6208 54.39 58.3767 54.2485 58.0865C54.1071 57.7963 54.0364 57.4447 54.0364 57.0301V50.0132C54.0364 49.6201 54.1071 49.2716 54.2485 48.9722C54.39 48.6712 54.5914 48.4286 54.8528 48.2413H54.8374C55.0987 48.074 55.3709 47.9358 55.6522 47.8283C55.9336 47.7193 56.2057 47.6655 56.4671 47.6655H59.7602H59.7618ZM59.3836 57.9176C59.7556 57.9176 60.0185 57.8147 60.1692 57.6074C60.3199 57.4002 60.3952 57.1698 60.3952 56.9134V50.1483C60.3952 49.9026 60.3199 49.6754 60.1692 49.4681C60.0185 49.2608 59.7556 49.158 59.3836 49.158H56.8468C56.4747 49.158 56.2118 49.2608 56.0612 49.4681C55.9105 49.6754 55.8352 49.9011 55.8352 50.1483V56.9134C55.8352 57.1698 55.9105 57.4002 56.0612 57.6074C56.2118 57.8147 56.4732 57.9176 56.8468 57.9176H59.3836Z" fill="white"/>
<path d="M65.4257 59.4085C65.0536 59.4085 64.8015 59.3149 64.6708 59.1276C64.5401 58.9402 64.474 58.7345 64.474 58.5072V48.2997C64.474 47.8268 64.7661 47.5903 65.3503 47.5903C65.9346 47.5903 66.2559 47.8268 66.2559 48.2997V57.9161H71.3002C71.663 57.9161 71.8444 58.1572 71.8444 58.6393C71.8644 59.1506 71.683 59.407 71.3002 59.407H65.4257V59.4085Z" fill="white"/>
<path d="M77.2654 58.8035C77.2654 59.2765 76.9641 59.5129 76.3598 59.5129C75.7556 59.5129 75.4681 59.2765 75.4681 58.8035V49.158H72.8253C72.4625 49.158 72.2718 48.9062 72.2518 48.4041C72.2518 47.9112 72.4425 47.6655 72.8253 47.6655H79.9082C80.2911 47.6655 80.4725 47.9112 80.4525 48.4041C80.4525 48.9062 80.2711 49.158 79.9082 49.158H77.2654V58.8035Z" fill="white"/>
<path d="M95.5855 47.5919C95.9068 47.5919 96.2604 47.6656 96.6432 47.813C96.9953 47.9512 97.1721 48.2123 97.1721 48.5961V58.7745C97.1721 59.2474 96.8754 59.4838 96.2804 59.4838C95.6854 59.4838 95.3887 59.2474 95.3887 58.7745V51.1818L94.9505 51.1372L94.3463 53.0581L92.5337 58.9664C92.423 59.3119 92.1509 59.4777 91.7189 59.4685C91.5282 59.4577 91.3606 59.4101 91.2207 59.3211C91.0793 59.232 90.984 59.1046 90.9332 58.9372L89.8463 55.4948C89.6249 54.8146 89.4035 54.1237 89.1821 53.4189C88.9607 52.7157 88.7193 51.9341 88.458 51.0774L88.0198 51.1357V58.7729C88.0198 59.2459 87.7231 59.4823 87.1296 59.4823C86.5362 59.4823 86.2379 59.2459 86.2379 58.7729V48.5946C86.2379 48.2199 86.4132 47.9589 86.7668 47.8115C87.1388 47.6641 87.4971 47.595 87.8384 47.6042C87.9891 47.6042 88.1459 47.6242 88.3073 47.6626C88.4687 47.7025 88.6194 47.7578 88.7608 47.833C88.9023 47.9067 89.0284 48.0004 89.139 48.114C89.2497 48.2276 89.3358 48.3581 89.3958 48.5055L91.7665 56.4084C91.9372 55.828 92.1186 55.1969 92.3108 54.5183C92.5014 53.8381 92.6982 53.1487 92.8996 52.45C93.101 51.7514 93.2993 51.0589 93.4961 50.3741C93.6929 49.6893 93.8759 49.0521 94.0465 48.461C94.1065 48.3228 94.1926 48.2 94.3033 48.091C94.414 47.9819 94.54 47.8913 94.6815 47.8176C94.8229 47.7439 94.9705 47.6871 95.1273 47.6472C95.2826 47.6088 95.4364 47.5889 95.5886 47.5889L95.5855 47.5919Z" fill="white"/>
<path d="M103.273 49.1119L99.9656 59.0385V59.0231C99.9057 59.1705 99.8227 59.2918 99.7166 59.3855C99.6105 59.4792 99.4829 59.5252 99.3307 59.5252C99.2507 59.5252 99.1723 59.5176 99.097 59.5037C99.0217 59.4884 98.9432 59.4715 98.8633 59.4515H98.8787C98.3052 59.275 98.093 58.9587 98.2437 58.5057L101.688 48.269C101.738 48.1108 101.826 47.9788 101.952 47.8698C102.078 47.7608 102.226 47.6978 102.398 47.6778C102.569 47.6487 102.735 47.6256 102.896 47.6118C103.057 47.5965 103.183 47.5903 103.274 47.5903C103.365 47.5903 103.491 47.598 103.652 47.6118C103.814 47.6272 103.98 47.6441 104.151 47.664C104.292 47.684 104.43 47.7577 104.566 47.8851C104.701 48.0126 104.804 48.1415 104.875 48.269C105.439 49.9626 106.009 51.6684 106.589 53.3881C107.167 55.1063 107.739 56.8121 108.303 58.5072C108.445 58.9602 108.232 59.275 107.668 59.4531C107.587 59.473 107.514 59.4899 107.45 59.5053C107.384 59.5206 107.311 59.5268 107.232 59.5268C107.09 59.5268 106.962 59.4792 106.847 59.387C106.732 59.2934 106.649 59.1721 106.598 59.0247V59.04L103.276 49.1135L103.273 49.1119ZM104.406 55.8479C104.406 56.1626 104.292 56.4313 104.066 56.6524C103.84 56.8735 103.565 56.9856 103.243 56.9856C102.922 56.9856 102.648 56.8751 102.429 56.6524C102.207 56.4313 102.097 56.1626 102.097 55.8479C102.097 55.5331 102.207 55.2644 102.429 55.0433C102.65 54.8222 102.922 54.7101 103.243 54.7101C103.565 54.7101 103.84 54.8207 104.066 55.0433C104.292 55.2659 104.406 55.5331 104.406 55.8479Z" fill="white"/>
<path d="M113.693 58.8035C113.693 59.2765 113.392 59.5129 112.788 59.5129C112.184 59.5129 111.896 59.2765 111.896 58.8035V49.158H109.253C108.89 49.158 108.7 48.9062 108.68 48.4041C108.68 47.9112 108.87 47.6655 109.253 47.6655H116.336C116.719 47.6655 116.9 47.9112 116.88 48.4041C116.88 48.9062 116.699 49.158 116.336 49.158H113.693V58.8035Z" fill="white"/>
<path d="M122.498 54.5338H121.336C121.165 54.5338 121.031 54.4678 120.936 54.3342C120.841 54.2006 120.793 54.021 120.793 53.7953C120.793 53.2932 121.005 53.0414 121.428 53.0414H123.195C123.567 53.0414 123.83 52.9385 123.98 52.7312C124.131 52.5239 124.206 52.2982 124.206 52.051V50.1456C124.206 49.8999 124.131 49.6727 123.98 49.4654C123.83 49.2581 123.567 49.1552 123.195 49.1552H120.008V58.787C120.008 59.2599 119.711 59.4963 119.116 59.4963C118.521 59.4963 118.224 59.2599 118.224 58.787V48.5503C118.224 48.1956 118.318 47.9591 118.504 47.8409C118.69 47.7227 118.914 47.6643 119.176 47.6643H123.571C123.833 47.6643 124.105 47.718 124.386 47.8271C124.667 47.9361 124.94 48.0727 125.201 48.2401H125.186C125.447 48.4274 125.648 48.6716 125.79 48.971C125.931 49.2719 126.002 49.6189 126.002 50.012V52.1693C126.002 52.9677 125.73 53.5634 125.187 53.9565C125.076 54.0348 124.958 54.11 124.832 54.1776C124.706 54.2467 124.578 54.3158 124.448 54.3849L126.864 58.2849C126.895 58.334 126.924 58.3985 126.955 58.4768C126.986 58.5551 127 58.6196 127 58.6687C127 58.9052 126.829 59.1324 126.486 59.3474V59.332C126.254 59.4702 126.059 59.5393 125.897 59.5393C125.665 59.5393 125.479 59.4257 125.339 59.2L125.355 59.2154L122.5 54.5323L122.498 54.5338Z" fill="white"/>
<path d="M130.261 58.7729C130.261 59.2458 129.959 59.4822 129.355 59.4822C128.751 59.4822 128.464 59.2458 128.464 58.7729V48.2997C128.464 47.8268 128.76 47.5903 129.355 47.5903C129.95 47.5903 130.261 47.8268 130.261 48.2997V58.7729Z" fill="white"/>
<path d="M138.853 47.9316C138.933 47.8225 139.016 47.735 139.102 47.6659C139.189 47.5968 139.301 47.5631 139.442 47.5631C139.584 47.5631 139.744 47.6076 139.925 47.6966C140.308 47.8732 140.498 48.1005 140.498 48.3768C140.498 48.4459 140.491 48.5166 140.475 48.5903C140.46 48.664 140.432 48.7254 140.392 48.7745V48.7592L137.477 53.605L140.317 58.3019C140.368 58.4201 140.392 58.5383 140.392 58.6565C140.392 58.9421 140.231 59.1694 139.91 59.3367C139.668 59.455 139.467 59.5133 139.305 59.5133C139.104 59.5133 138.923 59.3997 138.761 59.174L136.163 54.8748C135.971 55.2003 135.765 55.5442 135.543 55.9081C135.322 56.272 135.097 56.6451 134.871 57.0228C134.645 57.4021 134.418 57.7737 134.192 58.1376C133.966 58.5015 133.757 58.8469 133.565 59.1709C133.485 59.2799 133.403 59.3628 133.323 59.4227C133.242 59.4811 133.142 59.5118 133.022 59.5118C132.851 59.5118 132.654 59.4534 132.433 59.3352C132.09 59.1479 131.92 58.9222 131.92 58.655C131.92 58.5859 131.929 58.5245 131.95 58.4708C131.97 58.417 131.995 58.3556 132.026 58.2865V58.3019C132.488 57.5234 132.965 56.7357 133.452 55.9388C133.941 55.1404 134.421 54.3481 134.895 53.5604L132.01 48.7592C131.98 48.7008 131.95 48.6317 131.92 48.5519C131.889 48.4736 131.875 48.4091 131.875 48.3599C131.875 48.0943 132.076 47.8732 132.479 47.6951C132.641 47.6061 132.801 47.5615 132.962 47.5615C133.093 47.5615 133.203 47.5968 133.294 47.6644C133.385 47.7335 133.469 47.8225 133.551 47.93L136.209 52.3029L138.852 47.93L138.853 47.9316Z" fill="white"/>
</g>
<defs>
<linearGradient id="paint0_linear_39_10986" x1="0.5" y1="53.537" x2="8.65607" y2="53.537" gradientUnits="userSpaceOnUse">
<stop stop-color="#662D91"/>
<stop offset="0.86" stop-color="#662D91"/>
<stop offset="1" stop-color="#662D91"/>
</linearGradient>
<linearGradient id="paint1_linear_39_10986" x1="10.83" y1="0.234542" x2="18.9861" y2="0.234542" gradientUnits="userSpaceOnUse">
<stop stop-color="#662D91"/>
<stop offset="0.86" stop-color="#662D91"/>
<stop offset="1" stop-color="#662D91"/>
</linearGradient>
<linearGradient id="paint2_linear_39_10986" x1="21.266" y1="53.6034" x2="30.0401" y2="53.6034" gradientUnits="userSpaceOnUse">
<stop stop-color="#662D91"/>
<stop offset="0.86" stop-color="#662D91"/>
<stop offset="1" stop-color="#662D91"/>
</linearGradient>
<linearGradient id="paint3_linear_39_10986" x1="31.4608" y1="0.234538" x2="38.5145" y2="0.234538" gradientUnits="userSpaceOnUse">
<stop stop-color="#662D91"/>
<stop offset="0.86" stop-color="#662D91"/>
<stop offset="1" stop-color="#662D91"/>
</linearGradient>
<linearGradient id="paint4_linear_39_10986" x1="43.7695" y1="53.5216" x2="52.6512" y2="53.5216" gradientUnits="userSpaceOnUse">
<stop stop-color="#662D91"/>
<stop offset="0.86" stop-color="#662D91"/>
<stop offset="1" stop-color="#662D91"/>
</linearGradient>
<linearGradient id="paint5_linear_39_10986" x1="54.0379" y1="0.234542" x2="62.194" y2="0.234542" gradientUnits="userSpaceOnUse">
<stop stop-color="#662D91"/>
<stop offset="0.86" stop-color="#662D91"/>
<stop offset="1" stop-color="#662D91"/>
</linearGradient>
<linearGradient id="paint6_linear_39_10986" x1="64.474" y1="53.5002" x2="71.846" y2="53.5002" gradientUnits="userSpaceOnUse">
<stop stop-color="#662D91"/>
<stop offset="0.86" stop-color="#662D91"/>
<stop offset="1" stop-color="#662D91"/>
</linearGradient>
<linearGradient id="paint7_linear_39_10986" x1="72.2518" y1="53.5892" x2="80.454" y2="53.5892" gradientUnits="userSpaceOnUse">
<stop stop-color="#662D91"/>
<stop offset="0.86" stop-color="#662D91"/>
<stop offset="1" stop-color="#662D91"/>
</linearGradient>
<linearGradient id="paint8_linear_39_10986" x1="86.2364" y1="53.5371" x2="97.1706" y2="53.5371" gradientUnits="userSpaceOnUse">
<stop stop-color="#662D91"/>
<stop offset="0.86" stop-color="#662D91"/>
<stop offset="1" stop-color="#662D91"/>
</linearGradient>
<linearGradient id="paint9_linear_39_10986" x1="98.1961" y1="53.5586" x2="108.343" y2="53.5586" gradientUnits="userSpaceOnUse">
<stop stop-color="#662D91"/>
<stop offset="0.86" stop-color="#662D91"/>
<stop offset="1" stop-color="#662D91"/>
</linearGradient>
<linearGradient id="paint10_linear_39_10986" x1="108.678" y1="53.5892" x2="116.88" y2="53.5892" gradientUnits="userSpaceOnUse">
<stop stop-color="#662D91"/>
<stop offset="0.86" stop-color="#662D91"/>
<stop offset="1" stop-color="#662D91"/>
</linearGradient>
<linearGradient id="paint11_linear_39_10986" x1="118.223" y1="53.6034" x2="126.998" y2="53.6034" gradientUnits="userSpaceOnUse">
<stop stop-color="#662D91"/>
<stop offset="0.86" stop-color="#662D91"/>
<stop offset="1" stop-color="#662D91"/>
</linearGradient>
<linearGradient id="paint12_linear_39_10986" x1="128.464" y1="53.5371" x2="130.261" y2="53.5371" gradientUnits="userSpaceOnUse">
<stop stop-color="#662D91"/>
<stop offset="0.86" stop-color="#662D91"/>
<stop offset="1" stop-color="#662D91"/>
</linearGradient>
<linearGradient id="paint13_linear_39_10986" x1="131.877" y1="53.5374" x2="140.5" y2="53.5374" gradientUnits="userSpaceOnUse">
<stop stop-color="#662D91"/>
<stop offset="0.86" stop-color="#662D91"/>
<stop offset="1" stop-color="#662D91"/>
</linearGradient>
<clipPath id="clip0_39_10986">
<rect width="140" height="59.3075" fill="white" transform="translate(0.5 0.235107)"/>
</clipPath>
</defs>
</svg>
